<svg width="1066" height="254" viewBox="0 0 1066 254" fill="none" xmlns="http://www.w3.org/2000/svg">
<g clip-path="url(#clip0_2_2)">
<path d="M164.586 106.635C164.586 92.423 144.135 64 118.906 64C93.6782 64 73.2266 92.423 73.2266 106.635" stroke="#E76A43" stroke-width="6"/>
<path d="M255.946 106.635C255.946 120.846 235.494 149.269 210.266 149.269C185.038 149.269 164.586 120.846 164.586 106.635" stroke="#E76A43" stroke-width="5"/>
<rect x="73.2266" y="104.198" width="182.719" height="4.87252" fill="url(#paint0_linear_2_2)"/>
<g filter="url(#filter0_d_2_2)">
<circle cx="73.2266" cy="106.634" r="15.2266" fill="#F4A850"/>
</g>
<g filter="url(#filter1_d_2_2)">
<circle cx="164.586" cy="106.634" r="15.2266" fill="#F4A850"/>
</g>
<g filter="url(#filter2_d_2_2)">
<circle cx="255.946" cy="106.634" r="15.2266" fill="#F4A850"/>
</g>
<path d="M289.52 77.7339V64.9752H356.555V77.7339H330.586V148.994H315.489V77.7339H289.52Z" fill="#F4A850"/>
<path d="M383.672 112.072V148.994H368.821V64.9752H383.344V96.6874H384.083C385.56 93.1319 387.843 90.3285 390.934 88.2773C394.052 86.1987 398.017 85.1594 402.831 85.1594C407.207 85.1594 411.022 86.0756 414.277 87.9081C417.531 89.7405 420.048 92.4208 421.825 95.9489C423.631 99.4771 424.533 103.785 424.533 108.872V148.994H409.682V111.169C409.682 106.93 408.588 103.634 406.4 101.282C404.239 98.9027 401.204 97.713 397.293 97.713C394.667 97.713 392.315 98.2874 390.236 99.436C388.185 100.557 386.571 102.185 385.395 104.318C384.247 106.451 383.672 109.036 383.672 112.072Z" fill="#F4A850"/>
<path d="M457.804 150.266C453.811 150.266 450.215 149.555 447.015 148.132C443.842 146.683 441.326 144.55 439.466 141.733C437.634 138.916 436.717 135.442 436.717 131.312C436.717 127.757 437.374 124.817 438.687 122.492C439.999 120.167 441.791 118.307 444.061 116.913C446.331 115.518 448.888 114.465 451.732 113.754C454.604 113.015 457.572 112.482 460.635 112.154C464.327 111.771 467.322 111.429 469.619 111.128C471.917 110.8 473.585 110.308 474.624 109.651C475.691 108.967 476.224 107.915 476.224 106.492V106.246C476.224 103.156 475.308 100.763 473.476 99.0668C471.643 97.3711 469.004 96.5233 465.558 96.5233C461.92 96.5233 459.035 97.3164 456.902 98.9027C454.796 100.489 453.373 102.362 452.635 104.523L438.769 102.554C439.863 98.7249 441.668 95.525 444.184 92.9541C446.7 90.3559 449.777 88.4141 453.415 87.1286C457.052 85.8158 461.072 85.1594 465.476 85.1594C468.512 85.1594 471.534 85.515 474.542 86.2261C477.551 86.9372 480.299 88.1132 482.788 89.7542C485.277 91.3678 487.274 93.5695 488.778 96.3592C490.309 99.1489 491.075 102.636 491.075 106.821V148.994H476.799V140.338H476.306C475.404 142.088 474.132 143.729 472.491 145.261C470.877 146.765 468.84 147.982 466.378 148.912C463.944 149.814 461.086 150.266 457.804 150.266ZM461.66 139.353C464.642 139.353 467.226 138.765 469.414 137.589C471.602 136.386 473.284 134.799 474.46 132.83C475.664 130.861 476.265 128.714 476.265 126.389V118.964C475.8 119.347 475.007 119.702 473.886 120.03C472.792 120.359 471.561 120.646 470.194 120.892C468.826 121.138 467.472 121.357 466.132 121.548C464.792 121.74 463.63 121.904 462.645 122.041C460.43 122.342 458.447 122.834 456.696 123.518C454.946 124.201 453.565 125.159 452.553 126.389C451.541 127.593 451.035 129.152 451.035 131.066C451.035 133.801 452.033 135.866 454.03 137.261C456.026 138.656 458.57 139.353 461.66 139.353Z" fill="#F4A850"/>
<path d="M520.859 64.9752V148.994H506.008V64.9752H520.859Z" fill="#F4A850"/>
<path d="M563.617 150.225C557.464 150.225 552.13 148.871 547.618 146.163C543.105 143.456 539.604 139.668 537.115 134.799C534.654 129.931 533.423 124.242 533.423 117.733C533.423 111.224 534.654 105.521 537.115 100.626C539.604 95.7301 543.105 91.9285 547.618 89.2209C552.13 86.5132 557.464 85.1594 563.617 85.1594C569.771 85.1594 575.104 86.5132 579.617 89.2209C584.13 91.9285 587.617 95.7301 590.078 100.626C592.567 105.521 593.812 111.224 593.812 117.733C593.812 124.242 592.567 129.931 590.078 134.799C587.617 139.668 584.13 143.456 579.617 146.163C575.104 148.871 569.771 150.225 563.617 150.225ZM563.699 138.328C567.036 138.328 569.826 137.411 572.068 135.579C574.311 133.719 575.979 131.23 577.073 128.112C578.195 124.994 578.755 121.521 578.755 117.692C578.755 113.836 578.195 110.349 577.073 107.231C575.979 104.086 574.311 101.583 572.068 99.7232C569.826 97.8634 567.036 96.9335 563.699 96.9335C560.281 96.9335 557.436 97.8634 555.166 99.7232C552.924 101.583 551.242 104.086 550.12 107.231C549.026 110.349 548.479 113.836 548.479 117.692C548.479 121.521 549.026 124.994 550.12 128.112C551.242 131.23 552.924 133.719 555.166 135.579C557.436 137.411 560.281 138.328 563.699 138.328Z" fill="#F4A850"/>
<path d="M315.866 184.752V167.748H326.128V169.575H317.925V175.32H325.597V177.147H317.925V182.925H326.261V184.752H315.866Z" fill="#999999"/>
<path d="M340.002 171.999L335.286 184.752H333.293L328.578 171.999H330.703L334.223 182.162H334.356L337.876 171.999H340.002Z" fill="#999999"/>
<path d="M347.478 185.018C346.25 185.018 345.19 184.746 344.299 184.204C343.413 183.656 342.729 182.892 342.248 181.913C341.772 180.927 341.534 179.782 341.534 178.475C341.534 177.169 341.772 176.018 342.248 175.021C342.729 174.019 343.399 173.239 344.257 172.68C345.121 172.115 346.128 171.833 347.279 171.833C347.943 171.833 348.599 171.944 349.247 172.165C349.895 172.387 350.484 172.746 351.015 173.245C351.547 173.737 351.97 174.39 352.286 175.204C352.601 176.018 352.759 177.02 352.759 178.21V179.04H342.929V177.346H350.766C350.766 176.627 350.622 175.984 350.335 175.42C350.052 174.855 349.648 174.41 349.122 174.083C348.602 173.757 347.988 173.593 347.279 173.593C346.499 173.593 345.824 173.787 345.253 174.174C344.689 174.556 344.254 175.055 343.95 175.669C343.645 176.283 343.493 176.942 343.493 177.645V178.774C343.493 179.737 343.659 180.554 343.991 181.223C344.329 181.888 344.797 182.394 345.395 182.743C345.992 183.086 346.687 183.258 347.478 183.258C347.993 183.258 348.458 183.186 348.873 183.042C349.294 182.892 349.657 182.671 349.961 182.377C350.265 182.079 350.501 181.708 350.667 181.265L352.56 181.796C352.36 182.438 352.026 183.003 351.555 183.49C351.085 183.972 350.503 184.348 349.812 184.619C349.12 184.885 348.342 185.018 347.478 185.018Z" fill="#999999"/>
<path d="M357.699 177.08V184.752H355.74V171.999H357.633V173.992H357.799C358.098 173.344 358.551 172.824 359.16 172.431C359.769 172.032 360.555 171.833 361.518 171.833C362.382 171.833 363.137 172.01 363.785 172.364C364.432 172.713 364.936 173.245 365.296 173.959C365.656 174.667 365.836 175.564 365.836 176.649V184.752H363.876V176.781C363.876 175.78 363.616 174.999 363.096 174.44C362.575 173.876 361.861 173.593 360.954 173.593C360.328 173.593 359.769 173.729 359.277 174C358.789 174.271 358.405 174.667 358.122 175.187C357.84 175.708 357.699 176.339 357.699 177.08Z" fill="#999999"/>
<path d="M374.962 171.999V173.66H368.353V171.999H374.962ZM370.28 168.944H372.239V181.099C372.239 181.652 372.319 182.068 372.48 182.344C372.646 182.615 372.856 182.798 373.111 182.892C373.371 182.981 373.645 183.025 373.933 183.025C374.149 183.025 374.326 183.014 374.464 182.992C374.603 182.964 374.713 182.942 374.796 182.925L375.195 184.686C375.062 184.735 374.877 184.785 374.638 184.835C374.4 184.89 374.099 184.918 373.734 184.918C373.18 184.918 372.638 184.799 372.106 184.561C371.58 184.323 371.143 183.961 370.794 183.473C370.451 182.986 370.28 182.372 370.28 181.63V168.944Z" fill="#999999"/>
<path d="M393.519 174.855L391.759 175.353C391.648 175.06 391.485 174.775 391.269 174.498C391.058 174.216 390.771 173.984 390.405 173.801C390.04 173.618 389.572 173.527 389.002 173.527C388.222 173.527 387.571 173.707 387.051 174.067C386.536 174.421 386.279 174.872 386.279 175.42C386.279 175.907 386.456 176.292 386.81 176.574C387.164 176.856 387.718 177.091 388.471 177.28L390.364 177.745C391.504 178.021 392.354 178.445 392.913 179.015C393.472 179.579 393.751 180.307 393.751 181.198C393.751 181.929 393.541 182.582 393.12 183.158C392.705 183.734 392.124 184.187 391.377 184.52C390.629 184.852 389.76 185.018 388.77 185.018C387.469 185.018 386.392 184.735 385.54 184.171C384.687 183.606 384.148 182.782 383.921 181.697L385.781 181.232C385.958 181.918 386.293 182.433 386.785 182.776C387.283 183.119 387.934 183.291 388.736 183.291C389.65 183.291 390.375 183.097 390.912 182.71C391.454 182.317 391.725 181.846 391.725 181.298C391.725 180.855 391.57 180.484 391.26 180.186C390.95 179.881 390.474 179.654 389.832 179.505L387.707 179.007C386.539 178.73 385.681 178.301 385.133 177.72C384.591 177.133 384.319 176.4 384.319 175.519C384.319 174.8 384.521 174.163 384.925 173.61C385.335 173.056 385.891 172.622 386.594 172.306C387.303 171.991 388.105 171.833 389.002 171.833C390.264 171.833 391.255 172.11 391.974 172.663C392.699 173.217 393.214 173.948 393.519 174.855Z" fill="#999999"/>
<path d="M401.882 185.018C400.73 185.018 399.72 184.744 398.851 184.196C397.988 183.648 397.312 182.881 396.825 181.896C396.344 180.911 396.103 179.759 396.103 178.442C396.103 177.114 396.344 175.954 396.825 174.963C397.312 173.972 397.988 173.203 398.851 172.655C399.72 172.107 400.73 171.833 401.882 171.833C403.033 171.833 404.04 172.107 404.904 172.655C405.773 173.203 406.448 173.972 406.93 174.963C407.417 175.954 407.66 177.114 407.66 178.442C407.66 179.759 407.417 180.911 406.93 181.896C406.448 182.881 405.773 183.648 404.904 184.196C404.04 184.744 403.033 185.018 401.882 185.018ZM401.882 183.258C402.756 183.258 403.476 183.033 404.04 182.585C404.605 182.137 405.023 181.547 405.294 180.817C405.565 180.086 405.701 179.294 405.701 178.442C405.701 177.59 405.565 176.795 405.294 176.059C405.023 175.323 404.605 174.728 404.04 174.274C403.476 173.82 402.756 173.593 401.882 173.593C401.007 173.593 400.287 173.82 399.723 174.274C399.158 174.728 398.74 175.323 398.469 176.059C398.198 176.795 398.062 177.59 398.062 178.442C398.062 179.294 398.198 180.086 398.469 180.817C398.74 181.547 399.158 182.137 399.723 182.585C400.287 183.033 401.007 183.258 401.882 183.258Z" fill="#999999"/>
<path d="M418.688 179.538V171.999H420.648V184.752H418.688V182.593H418.555C418.256 183.241 417.791 183.792 417.16 184.246C416.529 184.694 415.732 184.918 414.769 184.918C413.972 184.918 413.264 184.744 412.644 184.395C412.024 184.041 411.537 183.509 411.183 182.801C410.828 182.087 410.651 181.187 410.651 180.103V171.999H412.611V179.97C412.611 180.9 412.871 181.641 413.391 182.195C413.917 182.748 414.587 183.025 415.4 183.025C415.887 183.025 416.383 182.901 416.886 182.651C417.396 182.402 417.822 182.02 418.165 181.506C418.514 180.991 418.688 180.335 418.688 179.538Z" fill="#999999"/>
<path d="M424.236 184.752V171.999H426.129V173.925H426.262C426.495 173.294 426.915 172.782 427.524 172.389C428.133 171.996 428.819 171.8 429.583 171.8C429.727 171.8 429.907 171.803 430.123 171.808C430.339 171.814 430.502 171.822 430.613 171.833V173.826C430.546 173.809 430.394 173.784 430.156 173.751C429.924 173.712 429.677 173.693 429.417 173.693C428.797 173.693 428.244 173.823 427.757 174.083C427.275 174.338 426.893 174.692 426.611 175.146C426.334 175.594 426.196 176.106 426.196 176.682V184.752H424.236Z" fill="#999999"/>
<path d="M437.728 185.018C436.533 185.018 435.503 184.735 434.64 184.171C433.776 183.606 433.112 182.829 432.647 181.838C432.182 180.847 431.95 179.715 431.95 178.442C431.95 177.147 432.188 176.004 432.664 175.013C433.145 174.017 433.815 173.239 434.673 172.68C435.536 172.115 436.544 171.833 437.695 171.833C438.592 171.833 439.4 171.999 440.119 172.331C440.839 172.663 441.428 173.128 441.888 173.726C442.347 174.324 442.632 175.021 442.743 175.818H440.784C440.634 175.237 440.302 174.722 439.787 174.274C439.278 173.82 438.592 173.593 437.728 173.593C436.964 173.593 436.295 173.793 435.719 174.191C435.149 174.584 434.703 175.14 434.382 175.86C434.067 176.574 433.909 177.412 433.909 178.376C433.909 179.361 434.064 180.219 434.374 180.949C434.689 181.68 435.132 182.247 435.702 182.651C436.278 183.056 436.953 183.258 437.728 183.258C438.237 183.258 438.7 183.169 439.115 182.992C439.53 182.815 439.881 182.56 440.169 182.228C440.457 181.896 440.662 181.497 440.784 181.032H442.743C442.632 181.785 442.358 182.463 441.921 183.067C441.489 183.664 440.916 184.14 440.202 184.495C439.494 184.843 438.669 185.018 437.728 185.018Z" fill="#999999"/>
<path d="M445.607 184.752V171.999H447.567V184.752H445.607ZM446.604 169.874C446.222 169.874 445.892 169.744 445.616 169.483C445.344 169.223 445.209 168.911 445.209 168.545C445.209 168.18 445.344 167.867 445.616 167.607C445.892 167.347 446.222 167.217 446.604 167.217C446.986 167.217 447.312 167.347 447.583 167.607C447.86 167.867 447.999 168.18 447.999 168.545C447.999 168.911 447.86 169.223 447.583 169.483C447.312 169.744 446.986 169.874 446.604 169.874Z" fill="#999999"/>
<path d="M453.115 177.08V184.752H451.156V171.999H453.049V173.992H453.215C453.514 173.344 453.967 172.824 454.576 172.431C455.185 172.032 455.971 171.833 456.934 171.833C457.798 171.833 458.553 172.01 459.201 172.364C459.848 172.713 460.352 173.245 460.712 173.959C461.072 174.667 461.252 175.564 461.252 176.649V184.752H459.292V176.781C459.292 175.78 459.032 174.999 458.512 174.44C457.991 173.876 457.277 173.593 456.37 173.593C455.744 173.593 455.185 173.729 454.693 174C454.205 174.271 453.821 174.667 453.538 175.187C453.256 175.708 453.115 176.339 453.115 177.08Z" fill="#999999"/>
<path d="M469.98 189.8C469.033 189.8 468.22 189.678 467.539 189.435C466.858 189.197 466.291 188.881 465.837 188.488C465.388 188.101 465.031 187.686 464.766 187.243L466.327 186.147C466.504 186.379 466.728 186.645 466.999 186.944C467.27 187.248 467.641 187.511 468.112 187.733C468.588 187.96 469.21 188.073 469.98 188.073C471.009 188.073 471.859 187.824 472.529 187.326C473.198 186.828 473.533 186.047 473.533 184.984V182.394H473.367C473.223 182.627 473.018 182.914 472.753 183.258C472.493 183.595 472.116 183.897 471.624 184.163C471.137 184.423 470.478 184.553 469.648 184.553C468.618 184.553 467.694 184.309 466.875 183.822C466.061 183.335 465.416 182.627 464.94 181.697C464.47 180.767 464.234 179.638 464.234 178.309C464.234 177.003 464.464 175.865 464.923 174.897C465.383 173.923 466.022 173.17 466.841 172.638C467.661 172.102 468.607 171.833 469.681 171.833C470.511 171.833 471.17 171.972 471.657 172.248C472.149 172.519 472.526 172.829 472.786 173.178C473.052 173.521 473.257 173.804 473.4 174.025H473.6V171.999H475.493V185.117C475.493 186.213 475.244 187.104 474.745 187.791C474.253 188.483 473.589 188.989 472.753 189.31C471.923 189.637 470.998 189.8 469.98 189.8ZM469.913 182.793C470.699 182.793 471.364 182.613 471.906 182.253C472.448 181.893 472.861 181.376 473.143 180.7C473.425 180.025 473.566 179.217 473.566 178.276C473.566 177.357 473.428 176.546 473.151 175.843C472.875 175.14 472.465 174.59 471.923 174.191C471.38 173.793 470.71 173.593 469.913 173.593C469.083 173.593 468.391 173.804 467.838 174.224C467.29 174.645 466.877 175.21 466.601 175.918C466.329 176.627 466.194 177.412 466.194 178.276C466.194 179.162 466.332 179.945 466.609 180.626C466.891 181.301 467.306 181.832 467.854 182.22C468.408 182.602 469.094 182.793 469.913 182.793Z" fill="#999999"/>
<path d="M485.655 184.752V171.999H487.548V173.925H487.681C487.913 173.294 488.334 172.782 488.943 172.389C489.552 171.996 490.238 171.8 491.002 171.8C491.146 171.8 491.326 171.803 491.542 171.808C491.758 171.814 491.921 171.822 492.032 171.833V173.826C491.965 173.809 491.813 173.784 491.575 173.751C491.342 173.712 491.096 173.693 490.836 173.693C490.216 173.693 489.663 173.823 489.175 174.083C488.694 174.338 488.312 174.692 488.03 175.146C487.753 175.594 487.615 176.106 487.615 176.682V184.752H485.655Z" fill="#999999"/>
<path d="M502.391 179.538V171.999H504.351V184.752H502.391V182.593H502.258C501.959 183.241 501.494 183.792 500.863 184.246C500.232 184.694 499.435 184.918 498.472 184.918C497.675 184.918 496.967 184.744 496.347 184.395C495.727 184.041 495.24 183.509 494.886 182.801C494.531 182.087 494.354 181.187 494.354 180.103V171.999H496.314V179.97C496.314 180.9 496.574 181.641 497.094 182.195C497.62 182.748 498.29 183.025 499.103 183.025C499.59 183.025 500.086 182.901 500.589 182.651C501.099 182.402 501.525 182.02 501.868 181.506C502.217 180.991 502.391 180.335 502.391 179.538Z" fill="#999999"/>
<path d="M509.899 177.08V184.752H507.939V171.999H509.832V173.992H509.998C510.297 173.344 510.751 172.824 511.36 172.431C511.969 172.032 512.755 171.833 513.718 171.833C514.582 171.833 515.337 172.01 515.985 172.364C516.632 172.713 517.136 173.245 517.496 173.959C517.856 174.667 518.035 175.564 518.035 176.649V184.752H516.076V176.781C516.076 175.78 515.816 174.999 515.296 174.44C514.775 173.876 514.061 173.593 513.153 173.593C512.528 173.593 511.969 173.729 511.476 174C510.989 174.271 510.605 174.667 510.322 175.187C510.04 175.708 509.899 176.339 509.899 177.08Z" fill="#999999"/>
<path d="M527.162 171.999V173.66H520.553V171.999H527.162ZM522.479 168.944H524.439V181.099C524.439 181.652 524.519 182.068 524.68 182.344C524.846 182.615 525.056 182.798 525.311 182.892C525.571 182.981 525.845 183.025 526.133 183.025C526.348 183.025 526.526 183.014 526.664 182.992C526.802 182.964 526.913 182.942 526.996 182.925L527.395 184.686C527.262 184.735 527.076 184.785 526.838 184.835C526.6 184.89 526.299 184.918 525.933 184.918C525.38 184.918 524.837 184.799 524.306 184.561C523.78 184.323 523.343 183.961 522.994 183.473C522.651 182.986 522.479 182.372 522.479 181.63V168.944Z" fill="#999999"/>
<path d="M530.11 184.752V171.999H532.069V184.752H530.11ZM531.106 169.874C530.724 169.874 530.395 169.744 530.118 169.483C529.847 169.223 529.711 168.911 529.711 168.545C529.711 168.18 529.847 167.867 530.118 167.607C530.395 167.347 530.724 167.217 531.106 167.217C531.488 167.217 531.814 167.347 532.086 167.607C532.362 167.867 532.501 168.18 532.501 168.545C532.501 168.911 532.362 169.223 532.086 169.483C531.814 169.744 531.488 169.874 531.106 169.874Z" fill="#999999"/>
<path d="M535.658 184.752V171.999H537.551V173.992H537.717C537.982 173.311 538.411 172.782 539.004 172.406C539.596 172.024 540.307 171.833 541.137 171.833C541.979 171.833 542.679 172.024 543.238 172.406C543.803 172.782 544.243 173.311 544.558 173.992H544.691C545.018 173.333 545.507 172.81 546.161 172.423C546.814 172.03 547.597 171.833 548.51 171.833C549.65 171.833 550.583 172.19 551.308 172.904C552.033 173.613 552.396 174.717 552.396 176.217V184.752H550.436V176.217C550.436 175.276 550.179 174.603 549.664 174.199C549.15 173.795 548.543 173.593 547.846 173.593C546.949 173.593 546.255 173.865 545.762 174.407C545.269 174.944 545.023 175.625 545.023 176.449V184.752H543.03V176.018C543.03 175.293 542.795 174.709 542.325 174.266C541.854 173.817 541.248 173.593 540.506 173.593C539.997 173.593 539.521 173.729 539.078 174C538.641 174.271 538.287 174.648 538.016 175.129C537.75 175.605 537.617 176.156 537.617 176.781V184.752H535.658Z" fill="#999999"/>
<path d="M561.325 185.018C560.097 185.018 559.037 184.746 558.145 184.204C557.26 183.656 556.576 182.892 556.095 181.913C555.619 180.927 555.381 179.782 555.381 178.475C555.381 177.169 555.619 176.018 556.095 175.021C556.576 174.019 557.246 173.239 558.104 172.68C558.967 172.115 559.975 171.833 561.126 171.833C561.79 171.833 562.446 171.944 563.094 172.165C563.741 172.387 564.331 172.746 564.862 173.245C565.394 173.737 565.817 174.39 566.133 175.204C566.448 176.018 566.606 177.02 566.606 178.21V179.04H556.775V177.346H564.613C564.613 176.627 564.469 175.984 564.181 175.42C563.899 174.855 563.495 174.41 562.969 174.083C562.449 173.757 561.835 173.593 561.126 173.593C560.346 173.593 559.67 173.787 559.1 174.174C558.536 174.556 558.101 175.055 557.797 175.669C557.492 176.283 557.34 176.942 557.34 177.645V178.774C557.34 179.737 557.506 180.554 557.838 181.223C558.176 181.888 558.644 182.394 559.241 182.743C559.839 183.086 560.534 183.258 561.325 183.258C561.84 183.258 562.305 183.186 562.72 183.042C563.141 182.892 563.503 182.671 563.808 182.377C564.112 182.079 564.347 181.708 564.514 181.265L566.407 181.796C566.207 182.438 565.872 183.003 565.402 183.49C564.931 183.972 564.35 184.348 563.658 184.619C562.966 184.885 562.189 185.018 561.325 185.018Z" fill="#999999"/>
<path d="M581.841 171.999V173.66H574.967V171.999H581.841ZM577.026 184.752V170.239C577.026 169.508 577.197 168.9 577.54 168.412C577.884 167.925 578.329 167.56 578.877 167.316C579.425 167.073 580.004 166.951 580.612 166.951C581.094 166.951 581.487 166.99 581.791 167.067C582.096 167.145 582.323 167.217 582.472 167.283L581.908 168.977C581.808 168.944 581.67 168.902 581.492 168.852C581.321 168.803 581.094 168.778 580.812 168.778C580.164 168.778 579.696 168.941 579.408 169.268C579.126 169.594 578.985 170.073 578.985 170.704V184.752H577.026Z" fill="#999999"/>
<path d="M589.243 185.018C588.092 185.018 587.081 184.744 586.212 184.196C585.349 183.648 584.674 182.881 584.187 181.896C583.705 180.911 583.464 179.759 583.464 178.442C583.464 177.114 583.705 175.954 584.187 174.963C584.674 173.972 585.349 173.203 586.212 172.655C587.081 172.107 588.092 171.833 589.243 171.833C590.394 171.833 591.402 172.107 592.265 172.655C593.134 173.203 593.809 173.972 594.291 174.963C594.778 175.954 595.022 177.114 595.022 178.442C595.022 179.759 594.778 180.911 594.291 181.896C593.809 182.881 593.134 183.648 592.265 184.196C591.402 184.744 590.394 185.018 589.243 185.018ZM589.243 183.258C590.117 183.258 590.837 183.033 591.402 182.585C591.966 182.137 592.384 181.547 592.655 180.817C592.927 180.086 593.062 179.294 593.062 178.442C593.062 177.59 592.927 176.795 592.655 176.059C592.384 175.323 591.966 174.728 591.402 174.274C590.837 173.82 590.117 173.593 589.243 173.593C588.368 173.593 587.649 173.82 587.084 174.274C586.52 174.728 586.102 175.323 585.831 176.059C585.559 176.795 585.424 177.59 585.424 178.442C585.424 179.294 585.559 180.086 585.831 180.817C586.102 181.547 586.52 182.137 587.084 182.585C587.649 183.033 588.368 183.258 589.243 183.258Z" fill="#999999"/>
<path d="M598.013 184.752V171.999H599.906V173.925H600.038C600.271 173.294 600.692 172.782 601.3 172.389C601.909 171.996 602.596 171.8 603.359 171.8C603.503 171.8 603.683 171.803 603.899 171.808C604.115 171.814 604.278 171.822 604.389 171.833V173.826C604.323 173.809 604.17 173.784 603.932 173.751C603.7 173.712 603.454 173.693 603.193 173.693C602.574 173.693 602.02 173.823 601.533 174.083C601.051 174.338 600.669 174.692 600.387 175.146C600.11 175.594 599.972 176.106 599.972 176.682V184.752H598.013Z" fill="#999999"/>
<path d="M616.177 184.752L612.291 171.999H614.35L617.107 181.763H617.239L619.963 171.999H622.055L624.745 181.73H624.878L627.634 171.999H629.693L625.808 184.752H623.882L621.092 174.955H620.893L618.103 184.752H616.177Z" fill="#999999"/>
<path d="M636.037 185.051C635.228 185.051 634.495 184.899 633.836 184.594C633.178 184.284 632.655 183.839 632.267 183.258C631.88 182.671 631.686 181.962 631.686 181.132C631.686 180.401 631.83 179.809 632.118 179.355C632.406 178.896 632.79 178.536 633.272 178.276C633.753 178.016 634.285 177.822 634.866 177.695C635.453 177.562 636.042 177.457 636.634 177.379C637.409 177.28 638.038 177.205 638.519 177.155C639.006 177.1 639.36 177.008 639.582 176.881C639.809 176.754 639.922 176.532 639.922 176.217V176.15C639.922 175.331 639.698 174.695 639.25 174.241C638.807 173.787 638.134 173.56 637.232 173.56C636.297 173.56 635.563 173.765 635.032 174.174C634.501 174.584 634.127 175.021 633.911 175.486L632.051 174.822C632.383 174.047 632.826 173.444 633.38 173.012C633.939 172.575 634.548 172.27 635.206 172.099C635.871 171.922 636.524 171.833 637.166 171.833C637.575 171.833 638.046 171.883 638.577 171.983C639.114 172.077 639.632 172.273 640.13 172.572C640.633 172.871 641.051 173.322 641.383 173.925C641.716 174.529 641.882 175.337 641.882 176.35V184.752H639.922V183.025H639.823C639.69 183.302 639.468 183.598 639.158 183.913C638.848 184.229 638.436 184.497 637.921 184.719C637.407 184.94 636.778 185.051 636.037 185.051ZM636.335 183.291C637.11 183.291 637.764 183.139 638.295 182.834C638.832 182.53 639.236 182.137 639.507 181.655C639.784 181.174 639.922 180.667 639.922 180.136V178.342C639.839 178.442 639.657 178.533 639.374 178.616C639.098 178.694 638.776 178.763 638.411 178.824C638.051 178.879 637.7 178.929 637.357 178.973C637.019 179.012 636.745 179.045 636.535 179.073C636.026 179.139 635.55 179.247 635.107 179.397C634.669 179.541 634.315 179.759 634.044 180.053C633.778 180.341 633.645 180.734 633.645 181.232C633.645 181.913 633.897 182.427 634.401 182.776C634.91 183.119 635.555 183.291 636.335 183.291Z" fill="#999999"/>
<path d="M654.491 174.855L652.731 175.353C652.62 175.06 652.457 174.775 652.241 174.498C652.031 174.216 651.743 173.984 651.378 173.801C651.012 173.618 650.545 173.527 649.975 173.527C649.194 173.527 648.544 173.707 648.024 174.067C647.509 174.421 647.251 174.872 647.251 175.42C647.251 175.907 647.429 176.292 647.783 176.574C648.137 176.856 648.691 177.091 649.443 177.28L651.336 177.745C652.477 178.021 653.326 178.445 653.885 179.015C654.444 179.579 654.724 180.307 654.724 181.198C654.724 181.929 654.513 182.582 654.093 183.158C653.678 183.734 653.096 184.187 652.349 184.52C651.602 184.852 650.733 185.018 649.742 185.018C648.441 185.018 647.365 184.735 646.512 184.171C645.66 183.606 645.12 182.782 644.893 181.697L646.753 181.232C646.93 181.918 647.265 182.433 647.758 182.776C648.256 183.119 648.906 183.291 649.709 183.291C650.622 183.291 651.347 183.097 651.884 182.71C652.427 182.317 652.698 181.846 652.698 181.298C652.698 180.855 652.543 180.484 652.233 180.186C651.923 179.881 651.447 179.654 650.805 179.505L648.679 179.007C647.512 178.73 646.654 178.301 646.106 177.72C645.563 177.133 645.292 176.4 645.292 175.519C645.292 174.8 645.494 174.163 645.898 173.61C646.308 173.056 646.864 172.622 647.567 172.306C648.275 171.991 649.078 171.833 649.975 171.833C651.237 171.833 652.227 172.11 652.947 172.663C653.672 173.217 654.187 173.948 654.491 174.855Z" fill="#999999"/>
<path d="M657.673 184.752V171.999H659.566V173.992H659.732C659.998 173.311 660.427 172.782 661.019 172.406C661.611 172.024 662.323 171.833 663.153 171.833C663.994 171.833 664.695 172.024 665.254 172.406C665.818 172.782 666.258 173.311 666.574 173.992H666.707C667.033 173.333 667.523 172.81 668.176 172.423C668.829 172.03 669.612 171.833 670.526 171.833C671.666 171.833 672.599 172.19 673.324 172.904C674.049 173.613 674.411 174.717 674.411 176.217V184.752H672.452V176.217C672.452 175.276 672.195 174.603 671.68 174.199C671.165 173.795 670.559 173.593 669.862 173.593C668.965 173.593 668.27 173.865 667.778 174.407C667.285 174.944 667.039 175.625 667.039 176.449V184.752H665.046V176.018C665.046 175.293 664.811 174.709 664.34 174.266C663.87 173.817 663.264 173.593 662.522 173.593C662.013 173.593 661.537 173.729 661.094 174C660.657 174.271 660.302 174.648 660.031 175.129C659.766 175.605 659.633 176.156 659.633 176.781V184.752H657.673Z" fill="#999999"/>
</g>
<defs>
<filter id="filter0_d_2_2" x="54" y="87.4077" width="38.4532" height="38.4532" filterUnits="userSpaceOnUse" color-interpolation-filters="sRGB">
<feFlood flood-opacity="0" result="BackgroundImageFix"/>
<feColorMatrix in="SourceAlpha" type="matrix" values="0 0 0 0 0 0 0 0 0 0 0 0 0 0 0 0 0 0 127 0" result="hardAlpha"/>
<feOffset/>
<feGaussianBlur stdDeviation="2"/>
<feComposite in2="hardAlpha" operator="out"/>
<feColorMatrix type="matrix" values="0 0 0 0 0.138021 0 0 0 0 0.175663 0 0 0 0 0.220833 0 0 0 1 0"/>
<feBlend mode="normal" in2="BackgroundImageFix" result="effect1_dropShadow_2_2"/>
<feBlend mode="normal" in="SourceGraphic" in2="effect1_dropShadow_2_2" result="shape"/>
</filter>
<filter id="filter1_d_2_2" x="145.36" y="91.4077" width="38.4532" height="38.4532" filterUnits="userSpaceOnUse" color-interpolation-filters="sRGB">
<feFlood flood-opacity="0" result="BackgroundImageFix"/>
<feColorMatrix in="SourceAlpha" type="matrix" values="0 0 0 0 0 0 0 0 0 0 0 0 0 0 0 0 0 0 127 0" result="hardAlpha"/>
<feOffset dy="4"/>
<feGaussianBlur stdDeviation="2"/>
<feComposite in2="hardAlpha" operator="out"/>
<feColorMatrix type="matrix" values="0 0 0 0 0 0 0 0 0 0 0 0 0 0 0 0 0 0 0.35 0"/>
<feBlend mode="normal" in2="BackgroundImageFix" result="effect1_dropShadow_2_2"/>
<feBlend mode="normal" in="SourceGraphic" in2="effect1_dropShadow_2_2" result="shape"/>
</filter>
<filter id="filter2_d_2_2" x="236.719" y="91.4077" width="38.4532" height="38.4532" filterUnits="userSpaceOnUse" color-interpolation-filters="sRGB">
<feFlood flood-opacity="0" result="BackgroundImageFix"/>
<feColorMatrix in="SourceAlpha" type="matrix" values="0 0 0 0 0 0 0 0 0 0 0 0 0 0 0 0 0 0 127 0" result="hardAlpha"/>
<feOffset dy="4"/>
<feGaussianBlur stdDeviation="2"/>
<feComposite in2="hardAlpha" operator="out"/>
<feColorMatrix type="matrix" values="0 0 0 0 0 0 0 0 0 0 0 0 0 0 0 0 0 0 0.35 0"/>
<feBlend mode="normal" in2="BackgroundImageFix" result="effect1_dropShadow_2_2"/>
<feBlend mode="normal" in="SourceGraphic" in2="effect1_dropShadow_2_2" result="shape"/>
</filter>
<linearGradient id="paint0_linear_2_2" x1="73.2266" y1="106.634" x2="255.946" y2="106.634" gradientUnits="userSpaceOnUse">
<stop stop-color="#FA845F"/>
<stop offset="1" stop-color="#E4663F"/>
</linearGradient>
<clipPath id="clip0_2_2">
<rect width="1066" height="254" fill="white"/>
</clipPath>
</defs>
</svg>
