<svg width="1066" height="400" viewBox="0 0 1066 400" fill="none" xmlns="http://www.w3.org/2000/svg">
<g clip-path="url(#clip0_2_2)">
<path d="M135.5 185.2C135.5 174.867 120.629 154.2 102.286 154.2C83.942 154.2 69.0714 174.867 69.0714 185.2" stroke="#E76A43" stroke-width="6"/>
<path d="M201.929 185.2C201.929 195.533 187.058 216.2 168.714 216.2C150.371 216.2 135.5 195.533 135.5 185.2" stroke="#E76A43" stroke-width="5"/>
<rect x="69.0714" y="183.428" width="132.857" height="3.54286" fill="url(#paint0_linear_2_2)"/>
<g filter="url(#filter0_d_2_2)">
<circle cx="69.0714" cy="185.2" r="11.0714" fill="#F4A850"/>
</g>
<g filter="url(#filter1_d_2_2)">
<circle cx="135.5" cy="185.2" r="11.0714" fill="#F4A850"/>
</g>
<g filter="url(#filter2_d_2_2)">
<circle cx="201.929" cy="185.2" r="11.0714" fill="#F4A850"/>
</g>
<path d="M226.341 164.186V154.909H275.082V164.186H256.2V216H245.223V164.186H226.341ZM294.8 189.153V216H284.001V154.909H294.561V177.967H295.098C296.172 175.382 297.832 173.344 300.08 171.852C302.347 170.341 305.23 169.585 308.73 169.585C311.912 169.585 314.686 170.251 317.053 171.584C319.419 172.916 321.249 174.865 322.541 177.43C323.854 179.996 324.51 183.128 324.51 186.827V216H313.712V188.497C313.712 185.415 312.916 183.018 311.325 181.308C309.754 179.578 307.547 178.713 304.703 178.713C302.794 178.713 301.084 179.131 299.572 179.966C298.081 180.781 296.908 181.964 296.053 183.516C295.217 185.067 294.8 186.946 294.8 189.153ZM348.702 216.925C345.798 216.925 343.183 216.408 340.857 215.374C338.55 214.32 336.72 212.768 335.368 210.72C334.036 208.672 333.369 206.146 333.369 203.143C333.369 200.558 333.847 198.42 334.801 196.73C335.756 195.04 337.058 193.688 338.709 192.673C340.359 191.659 342.219 190.893 344.287 190.376C346.375 189.839 348.533 189.452 350.76 189.213C353.445 188.935 355.622 188.686 357.293 188.467C358.963 188.229 360.176 187.871 360.932 187.393C361.707 186.896 362.095 186.131 362.095 185.097V184.918C362.095 182.67 361.429 180.93 360.097 179.697C358.764 178.464 356.845 177.848 354.339 177.848C351.695 177.848 349.597 178.425 348.045 179.578C346.514 180.732 345.48 182.094 344.943 183.665L334.861 182.233C335.656 179.449 336.969 177.122 338.798 175.253C340.628 173.364 342.865 171.952 345.51 171.017C348.155 170.062 351.078 169.585 354.28 169.585C356.487 169.585 358.685 169.844 360.872 170.361C363.06 170.878 365.058 171.733 366.868 172.926C368.678 174.099 370.129 175.7 371.223 177.729C372.337 179.757 372.893 182.293 372.893 185.335V216H362.513V209.706H362.155C361.499 210.979 360.574 212.172 359.381 213.286C358.207 214.379 356.726 215.264 354.936 215.94C353.166 216.597 351.088 216.925 348.702 216.925ZM351.506 208.99C353.673 208.99 355.553 208.562 357.143 207.707C358.734 206.832 359.957 205.679 360.812 204.247C361.688 202.815 362.125 201.254 362.125 199.564V194.165C361.787 194.443 361.21 194.702 360.395 194.94C359.599 195.179 358.705 195.388 357.71 195.567C356.716 195.746 355.732 195.905 354.757 196.044C353.783 196.183 352.938 196.303 352.222 196.402C350.611 196.621 349.169 196.979 347.896 197.476C346.624 197.973 345.619 198.669 344.884 199.564C344.148 200.439 343.78 201.572 343.78 202.964C343.78 204.953 344.506 206.455 345.957 207.469C347.409 208.483 349.259 208.99 351.506 208.99ZM394.55 154.909V216H383.751V154.909H394.55ZM425.64 216.895C421.165 216.895 417.287 215.911 414.006 213.942C410.725 211.973 408.179 209.219 406.37 205.679C404.58 202.139 403.685 198.003 403.685 193.27C403.685 188.537 404.58 184.391 406.37 180.831C408.179 177.271 410.725 174.507 414.006 172.538C417.287 170.57 421.165 169.585 425.64 169.585C430.114 169.585 433.992 170.57 437.273 172.538C440.554 174.507 443.09 177.271 444.88 180.831C446.689 184.391 447.594 188.537 447.594 193.27C447.594 198.003 446.689 202.139 444.88 205.679C443.09 209.219 440.554 211.973 437.273 213.942C433.992 215.911 430.114 216.895 425.64 216.895ZM425.699 208.244C428.125 208.244 430.154 207.578 431.784 206.246C433.415 204.893 434.628 203.084 435.424 200.817C436.239 198.55 436.647 196.024 436.647 193.24C436.647 190.436 436.239 187.901 435.424 185.634C434.628 183.347 433.415 181.527 431.784 180.175C430.154 178.822 428.125 178.146 425.699 178.146C423.213 178.146 421.145 178.822 419.495 180.175C417.864 181.527 416.641 183.347 415.826 185.634C415.03 187.901 414.632 190.436 414.632 193.24C414.632 196.024 415.03 198.55 415.826 200.817C416.641 203.084 417.864 204.893 419.495 206.246C421.145 207.578 423.213 208.244 425.699 208.244Z" fill="#F4A850"/>
<path d="M245.497 242V229.636H252.959V230.964H246.994V235.142H252.572V236.47H246.994V240.672H253.055V242H245.497ZM263.047 232.727L259.618 242H258.169L254.74 232.727H256.285L258.845 240.116H258.941L261.501 232.727H263.047ZM268.483 242.193C267.589 242.193 266.819 241.996 266.171 241.602C265.527 241.203 265.03 240.648 264.68 239.935C264.333 239.219 264.16 238.386 264.16 237.436C264.16 236.486 264.333 235.649 264.68 234.925C265.03 234.196 265.517 233.629 266.14 233.222C266.768 232.812 267.501 232.607 268.338 232.607C268.821 232.607 269.298 232.687 269.769 232.848C270.24 233.009 270.668 233.271 271.055 233.633C271.441 233.991 271.749 234.466 271.978 235.058C272.208 235.649 272.322 236.378 272.322 237.243V237.847H265.175V236.615H270.873C270.873 236.092 270.769 235.625 270.559 235.214C270.354 234.804 270.06 234.48 269.678 234.243C269.3 234.005 268.853 233.886 268.338 233.886C267.77 233.886 267.279 234.027 266.865 234.309C266.454 234.587 266.138 234.949 265.917 235.396C265.696 235.842 265.585 236.321 265.585 236.832V237.653C265.585 238.354 265.706 238.947 265.947 239.434C266.193 239.917 266.533 240.286 266.968 240.539C267.402 240.789 267.907 240.913 268.483 240.913C268.857 240.913 269.195 240.861 269.497 240.756C269.803 240.648 270.066 240.487 270.288 240.273C270.509 240.056 270.68 239.786 270.801 239.464L272.177 239.851C272.032 240.318 271.789 240.728 271.447 241.082C271.105 241.433 270.682 241.706 270.179 241.903C269.676 242.097 269.111 242.193 268.483 242.193ZM275.914 236.422V242H274.49V232.727H275.866V234.176H275.987C276.204 233.705 276.534 233.327 276.977 233.041C277.419 232.751 277.991 232.607 278.691 232.607C279.319 232.607 279.868 232.735 280.339 232.993C280.81 233.246 281.176 233.633 281.438 234.152C281.7 234.667 281.83 235.319 281.83 236.108V242H280.406V236.205C280.406 235.476 280.217 234.909 279.838 234.502C279.46 234.092 278.941 233.886 278.281 233.886C277.826 233.886 277.419 233.985 277.061 234.182C276.707 234.379 276.427 234.667 276.222 235.045C276.017 235.424 275.914 235.883 275.914 236.422ZM288.467 232.727V233.935H283.661V232.727H288.467ZM285.062 230.506H286.486V239.344C286.486 239.746 286.545 240.048 286.661 240.249C286.782 240.446 286.935 240.579 287.12 240.648C287.309 240.712 287.509 240.744 287.718 240.744C287.875 240.744 288.004 240.736 288.104 240.72C288.205 240.7 288.285 240.684 288.346 240.672L288.636 241.952C288.539 241.988 288.404 242.024 288.231 242.06C288.058 242.101 287.839 242.121 287.573 242.121C287.171 242.121 286.776 242.034 286.39 241.861C286.007 241.688 285.69 241.424 285.436 241.07C285.186 240.716 285.062 240.269 285.062 239.73V230.506ZM301.959 234.804L300.679 235.166C300.599 234.953 300.48 234.746 300.323 234.544C300.17 234.339 299.961 234.17 299.695 234.037C299.43 233.904 299.09 233.838 298.675 233.838C298.108 233.838 297.635 233.969 297.256 234.23C296.882 234.488 296.695 234.816 296.695 235.214C296.695 235.569 296.824 235.848 297.081 236.054C297.339 236.259 297.741 236.43 298.289 236.567L299.665 236.905C300.494 237.106 301.112 237.414 301.518 237.828C301.925 238.239 302.128 238.768 302.128 239.416C302.128 239.947 301.975 240.422 301.669 240.841C301.367 241.259 300.945 241.589 300.402 241.831C299.858 242.072 299.226 242.193 298.506 242.193C297.56 242.193 296.777 241.988 296.158 241.577C295.538 241.167 295.145 240.567 294.98 239.778L296.333 239.44C296.461 239.939 296.705 240.314 297.063 240.563C297.425 240.813 297.898 240.938 298.482 240.938C299.146 240.938 299.673 240.797 300.063 240.515C300.458 240.229 300.655 239.887 300.655 239.489C300.655 239.167 300.542 238.897 300.317 238.68C300.092 238.458 299.746 238.293 299.279 238.185L297.733 237.822C296.884 237.621 296.26 237.309 295.862 236.887C295.467 236.46 295.27 235.927 295.27 235.287C295.27 234.764 295.417 234.301 295.711 233.898C296.009 233.496 296.413 233.18 296.924 232.951C297.439 232.721 298.023 232.607 298.675 232.607C299.593 232.607 300.313 232.808 300.836 233.21C301.363 233.613 301.738 234.144 301.959 234.804ZM308.04 242.193C307.203 242.193 306.468 241.994 305.836 241.596C305.208 241.197 304.717 240.64 304.363 239.923C304.013 239.207 303.838 238.37 303.838 237.412C303.838 236.446 304.013 235.603 304.363 234.882C304.717 234.162 305.208 233.603 305.836 233.204C306.468 232.806 307.203 232.607 308.04 232.607C308.877 232.607 309.609 232.806 310.237 233.204C310.869 233.603 311.36 234.162 311.71 234.882C312.064 235.603 312.241 236.446 312.241 237.412C312.241 238.37 312.064 239.207 311.71 239.923C311.36 240.64 310.869 241.197 310.237 241.596C309.609 241.994 308.877 242.193 308.04 242.193ZM308.04 240.913C308.676 240.913 309.199 240.75 309.609 240.424C310.02 240.098 310.324 239.67 310.521 239.138C310.718 238.607 310.817 238.032 310.817 237.412C310.817 236.792 310.718 236.215 310.521 235.679C310.324 235.144 310.02 234.711 309.609 234.381C309.199 234.051 308.676 233.886 308.04 233.886C307.404 233.886 306.881 234.051 306.47 234.381C306.06 234.711 305.756 235.144 305.559 235.679C305.361 236.215 305.263 236.792 305.263 237.412C305.263 238.032 305.361 238.607 305.559 239.138C305.756 239.67 306.06 240.098 306.47 240.424C306.881 240.75 307.404 240.913 308.04 240.913ZM320.26 238.209V232.727H321.685V242H320.26V240.43H320.163C319.946 240.901 319.608 241.302 319.149 241.632C318.69 241.958 318.111 242.121 317.411 242.121C316.831 242.121 316.316 241.994 315.865 241.74C315.414 241.483 315.06 241.096 314.803 240.581C314.545 240.062 314.416 239.408 314.416 238.619V232.727H315.841V238.523C315.841 239.199 316.03 239.738 316.408 240.141C316.791 240.543 317.278 240.744 317.869 240.744C318.224 240.744 318.584 240.654 318.95 240.473C319.32 240.292 319.63 240.014 319.88 239.64C320.133 239.265 320.26 238.788 320.26 238.209ZM324.294 242V232.727H325.671V234.128H325.767C325.936 233.669 326.242 233.297 326.685 233.011C327.128 232.725 327.627 232.582 328.182 232.582C328.287 232.582 328.417 232.584 328.574 232.588C328.731 232.592 328.85 232.598 328.931 232.607V234.055C328.882 234.043 328.772 234.025 328.599 234.001C328.43 233.973 328.25 233.959 328.061 233.959C327.61 233.959 327.208 234.053 326.854 234.243C326.504 234.428 326.226 234.685 326.021 235.015C325.82 235.341 325.719 235.714 325.719 236.132V242H324.294ZM334.104 242.193C333.235 242.193 332.486 241.988 331.858 241.577C331.231 241.167 330.748 240.601 330.41 239.881C330.072 239.161 329.903 238.338 329.903 237.412C329.903 236.47 330.076 235.639 330.422 234.919C330.772 234.194 331.259 233.629 331.883 233.222C332.51 232.812 333.243 232.607 334.08 232.607C334.732 232.607 335.32 232.727 335.843 232.969C336.366 233.21 336.795 233.548 337.129 233.983C337.463 234.418 337.67 234.925 337.751 235.504H336.326C336.217 235.082 335.976 234.707 335.601 234.381C335.231 234.051 334.732 233.886 334.104 233.886C333.549 233.886 333.062 234.031 332.643 234.321C332.229 234.607 331.905 235.011 331.671 235.534C331.442 236.054 331.327 236.663 331.327 237.364C331.327 238.08 331.44 238.704 331.665 239.235C331.895 239.766 332.217 240.179 332.631 240.473C333.05 240.766 333.541 240.913 334.104 240.913C334.474 240.913 334.811 240.849 335.112 240.72C335.414 240.591 335.67 240.406 335.879 240.165C336.088 239.923 336.237 239.634 336.326 239.295H337.751C337.67 239.843 337.471 240.336 337.153 240.775C336.839 241.209 336.422 241.555 335.903 241.813C335.388 242.066 334.788 242.193 334.104 242.193ZM339.833 242V232.727H341.258V242H339.833ZM340.558 231.182C340.28 231.182 340.041 231.087 339.839 230.898C339.642 230.709 339.544 230.482 339.544 230.216C339.544 229.95 339.642 229.723 339.839 229.534C340.041 229.345 340.28 229.25 340.558 229.25C340.835 229.25 341.073 229.345 341.27 229.534C341.471 229.723 341.572 229.95 341.572 230.216C341.572 230.482 341.471 230.709 341.27 230.898C341.073 231.087 340.835 231.182 340.558 231.182ZM345.292 236.422V242H343.867V232.727H345.244V234.176H345.365C345.582 233.705 345.912 233.327 346.355 233.041C346.797 232.751 347.369 232.607 348.069 232.607C348.697 232.607 349.246 232.735 349.717 232.993C350.188 233.246 350.554 233.633 350.816 234.152C351.078 234.667 351.208 235.319 351.208 236.108V242H349.784V236.205C349.784 235.476 349.594 234.909 349.216 234.502C348.838 234.092 348.319 233.886 347.659 233.886C347.204 233.886 346.797 233.985 346.439 234.182C346.085 234.379 345.805 234.667 345.6 235.045C345.395 235.424 345.292 235.883 345.292 236.422ZM357.555 245.67C356.866 245.67 356.275 245.582 355.78 245.405C355.285 245.232 354.872 245.002 354.542 244.717C354.216 244.435 353.957 244.133 353.763 243.811L354.898 243.014C355.027 243.183 355.19 243.376 355.387 243.594C355.585 243.815 355.854 244.006 356.196 244.167C356.542 244.332 356.995 244.415 357.555 244.415C358.303 244.415 358.921 244.234 359.408 243.871C359.895 243.509 360.138 242.942 360.138 242.169V240.286H360.018C359.913 240.455 359.764 240.664 359.571 240.913C359.382 241.159 359.108 241.378 358.75 241.571C358.396 241.761 357.917 241.855 357.313 241.855C356.565 241.855 355.893 241.678 355.297 241.324C354.705 240.97 354.236 240.455 353.89 239.778C353.548 239.102 353.377 238.281 353.377 237.315C353.377 236.366 353.544 235.538 353.878 234.834C354.212 234.126 354.677 233.578 355.273 233.192C355.868 232.802 356.557 232.607 357.337 232.607C357.941 232.607 358.42 232.707 358.774 232.908C359.132 233.106 359.406 233.331 359.595 233.585C359.788 233.834 359.937 234.039 360.042 234.2H360.187V232.727H361.563V242.266C361.563 243.062 361.382 243.71 361.02 244.21C360.662 244.713 360.179 245.081 359.571 245.314C358.967 245.552 358.295 245.67 357.555 245.67ZM357.506 240.575C358.078 240.575 358.561 240.444 358.955 240.183C359.35 239.921 359.65 239.545 359.855 239.054C360.06 238.563 360.163 237.975 360.163 237.291C360.163 236.623 360.062 236.033 359.861 235.522C359.66 235.011 359.362 234.611 358.967 234.321C358.573 234.031 358.086 233.886 357.506 233.886C356.903 233.886 356.4 234.039 355.997 234.345C355.599 234.651 355.299 235.062 355.098 235.577C354.9 236.092 354.802 236.663 354.802 237.291C354.802 237.935 354.902 238.505 355.104 239C355.309 239.491 355.611 239.877 356.009 240.159C356.412 240.436 356.911 240.575 357.506 240.575ZM368.952 242V232.727H370.329V234.128H370.425C370.594 233.669 370.9 233.297 371.343 233.011C371.786 232.725 372.285 232.582 372.84 232.582C372.945 232.582 373.076 232.584 373.233 232.588C373.39 232.592 373.508 232.598 373.589 232.607V234.055C373.54 234.043 373.43 234.025 373.257 234.001C373.088 233.973 372.909 233.959 372.719 233.959C372.269 233.959 371.866 234.053 371.512 234.243C371.162 234.428 370.884 234.685 370.679 235.015C370.478 235.341 370.377 235.714 370.377 236.132V242H368.952ZM381.121 238.209V232.727H382.546V242H381.121V240.43H381.025C380.807 240.901 380.469 241.302 380.011 241.632C379.552 241.958 378.972 242.121 378.272 242.121C377.692 242.121 377.177 241.994 376.726 241.74C376.276 241.483 375.922 241.096 375.664 240.581C375.406 240.062 375.278 239.408 375.278 238.619V232.727H376.702V238.523C376.702 239.199 376.891 239.738 377.27 240.141C377.652 240.543 378.139 240.744 378.731 240.744C379.085 240.744 379.445 240.654 379.811 240.473C380.182 240.292 380.492 240.014 380.741 239.64C380.995 239.265 381.121 238.788 381.121 238.209ZM386.58 236.422V242H385.156V232.727H386.532V234.176H386.653C386.87 233.705 387.2 233.327 387.643 233.041C388.085 232.751 388.657 232.607 389.357 232.607C389.985 232.607 390.534 232.735 391.005 232.993C391.476 233.246 391.842 233.633 392.104 234.152C392.366 234.667 392.496 235.319 392.496 236.108V242H391.072V236.205C391.072 235.476 390.883 234.909 390.504 234.502C390.126 234.092 389.607 233.886 388.947 233.886C388.492 233.886 388.085 233.985 387.727 234.182C387.373 234.379 387.093 234.667 386.888 235.045C386.683 235.424 386.58 235.883 386.58 236.422ZM399.133 232.727V233.935H394.327V232.727H399.133ZM395.728 230.506H397.152V239.344C397.152 239.746 397.211 240.048 397.328 240.249C397.448 240.446 397.601 240.579 397.786 240.648C397.975 240.712 398.175 240.744 398.384 240.744C398.541 240.744 398.67 240.736 398.77 240.72C398.871 240.7 398.951 240.684 399.012 240.672L399.302 241.952C399.205 241.988 399.07 242.024 398.897 242.06C398.724 242.101 398.505 242.121 398.239 242.121C397.837 242.121 397.442 242.034 397.056 241.861C396.674 241.688 396.356 241.424 396.102 241.07C395.852 240.716 395.728 240.269 395.728 239.73V230.506ZM401.276 242V232.727H402.7V242H401.276ZM402 231.182C401.722 231.182 401.483 231.087 401.282 230.898C401.084 230.709 400.986 230.482 400.986 230.216C400.986 229.95 401.084 229.723 401.282 229.534C401.483 229.345 401.722 229.25 402 229.25C402.278 229.25 402.515 229.345 402.712 229.534C402.914 229.723 403.014 229.95 403.014 230.216C403.014 230.482 402.914 230.709 402.712 230.898C402.515 231.087 402.278 231.182 402 231.182ZM405.31 242V232.727H406.686V234.176H406.807C407 233.681 407.312 233.297 407.743 233.023C408.173 232.745 408.691 232.607 409.294 232.607C409.906 232.607 410.415 232.745 410.822 233.023C411.232 233.297 411.552 233.681 411.781 234.176H411.878C412.115 233.697 412.472 233.317 412.947 233.035C413.421 232.749 413.991 232.607 414.655 232.607C415.484 232.607 416.162 232.866 416.689 233.385C417.217 233.9 417.48 234.703 417.48 235.794V242H416.056V235.794C416.056 235.11 415.868 234.621 415.494 234.327C415.12 234.033 414.679 233.886 414.172 233.886C413.52 233.886 413.015 234.084 412.657 234.478C412.299 234.868 412.119 235.363 412.119 235.963V242H410.671V235.649C410.671 235.122 410.5 234.697 410.157 234.375C409.815 234.049 409.375 233.886 408.835 233.886C408.465 233.886 408.119 233.985 407.797 234.182C407.479 234.379 407.222 234.653 407.024 235.003C406.831 235.349 406.735 235.75 406.735 236.205V242H405.31ZM423.973 242.193C423.08 242.193 422.309 241.996 421.661 241.602C421.017 241.203 420.52 240.648 420.17 239.935C419.824 239.219 419.651 238.386 419.651 237.436C419.651 236.486 419.824 235.649 420.17 234.925C420.52 234.196 421.007 233.629 421.631 233.222C422.259 232.812 422.991 232.607 423.828 232.607C424.311 232.607 424.788 232.687 425.259 232.848C425.73 233.009 426.158 233.271 426.545 233.633C426.931 233.991 427.239 234.466 427.468 235.058C427.698 235.649 427.812 236.378 427.812 237.243V237.847H420.665V236.615H426.364C426.364 236.092 426.259 235.625 426.05 235.214C425.844 234.804 425.551 234.48 425.168 234.243C424.79 234.005 424.343 233.886 423.828 233.886C423.261 233.886 422.77 234.027 422.355 234.309C421.945 234.587 421.629 234.949 421.407 235.396C421.186 235.842 421.075 236.321 421.075 236.832V237.653C421.075 238.354 421.196 238.947 421.438 239.434C421.683 239.917 422.023 240.286 422.458 240.539C422.892 240.789 423.397 240.913 423.973 240.913C424.347 240.913 424.685 240.861 424.987 240.756C425.293 240.648 425.557 240.487 425.778 240.273C425.999 240.056 426.17 239.786 426.291 239.464L427.668 239.851C427.523 240.318 427.279 240.728 426.937 241.082C426.595 241.433 426.172 241.706 425.669 241.903C425.166 242.097 424.601 242.193 423.973 242.193ZM438.89 232.727V233.935H433.892V232.727H438.89ZM435.389 242V231.447C435.389 230.916 435.514 230.473 435.763 230.119C436.013 229.765 436.337 229.5 436.735 229.322C437.134 229.145 437.554 229.057 437.997 229.057C438.347 229.057 438.633 229.085 438.854 229.141C439.075 229.198 439.24 229.25 439.349 229.298L438.939 230.53C438.866 230.506 438.766 230.475 438.637 230.439C438.512 230.403 438.347 230.385 438.142 230.385C437.671 230.385 437.331 230.504 437.121 230.741C436.916 230.979 436.814 231.327 436.814 231.786V242H435.389ZM444.272 242.193C443.435 242.193 442.701 241.994 442.069 241.596C441.441 241.197 440.95 240.64 440.596 239.923C440.246 239.207 440.07 238.37 440.07 237.412C440.07 236.446 440.246 235.603 440.596 234.882C440.95 234.162 441.441 233.603 442.069 233.204C442.701 232.806 443.435 232.607 444.272 232.607C445.109 232.607 445.842 232.806 446.47 233.204C447.102 233.603 447.593 234.162 447.943 234.882C448.297 235.603 448.474 236.446 448.474 237.412C448.474 238.37 448.297 239.207 447.943 239.923C447.593 240.64 447.102 241.197 446.47 241.596C445.842 241.994 445.109 242.193 444.272 242.193ZM444.272 240.913C444.908 240.913 445.431 240.75 445.842 240.424C446.252 240.098 446.556 239.67 446.753 239.138C446.951 238.607 447.049 238.032 447.049 237.412C447.049 236.792 446.951 236.215 446.753 235.679C446.556 235.144 446.252 234.711 445.842 234.381C445.431 234.051 444.908 233.886 444.272 233.886C443.636 233.886 443.113 234.051 442.703 234.381C442.292 234.711 441.988 235.144 441.791 235.679C441.594 236.215 441.495 236.792 441.495 237.412C441.495 238.032 441.594 238.607 441.791 239.138C441.988 239.67 442.292 240.098 442.703 240.424C443.113 240.75 443.636 240.913 444.272 240.913ZM450.649 242V232.727H452.025V234.128H452.122C452.291 233.669 452.597 233.297 453.039 233.011C453.482 232.725 453.981 232.582 454.536 232.582C454.641 232.582 454.772 232.584 454.929 232.588C455.086 232.592 455.205 232.598 455.285 232.607V234.055C455.237 234.043 455.126 234.025 454.953 234.001C454.784 233.973 454.605 233.959 454.416 233.959C453.965 233.959 453.563 234.053 453.208 234.243C452.858 234.428 452.581 234.685 452.375 235.015C452.174 235.341 452.073 235.714 452.073 236.132V242H450.649ZM463.856 242L461.031 232.727H462.528L464.532 239.827H464.629L466.609 232.727H468.13L470.086 239.803H470.183L472.187 232.727H473.684L470.859 242H469.458L467.43 234.876H467.285L465.257 242H463.856ZM478.296 242.217C477.709 242.217 477.175 242.107 476.697 241.885C476.218 241.66 475.837 241.336 475.556 240.913C475.274 240.487 475.133 239.972 475.133 239.368C475.133 238.837 475.238 238.406 475.447 238.076C475.656 237.742 475.936 237.48 476.286 237.291C476.636 237.102 477.023 236.961 477.445 236.869C477.872 236.772 478.3 236.696 478.731 236.639C479.294 236.567 479.751 236.512 480.101 236.476C480.456 236.436 480.713 236.37 480.874 236.277C481.039 236.184 481.122 236.023 481.122 235.794V235.746C481.122 235.15 480.959 234.687 480.633 234.357C480.311 234.027 479.822 233.862 479.166 233.862C478.485 233.862 477.952 234.011 477.566 234.309C477.18 234.607 476.908 234.925 476.751 235.263L475.399 234.78C475.64 234.216 475.962 233.778 476.365 233.464C476.771 233.146 477.214 232.924 477.693 232.8C478.176 232.671 478.651 232.607 479.117 232.607C479.415 232.607 479.757 232.643 480.144 232.715C480.534 232.784 480.91 232.926 481.273 233.144C481.639 233.361 481.943 233.689 482.184 234.128C482.426 234.567 482.546 235.154 482.546 235.891V242H481.122V240.744H481.049C480.953 240.946 480.792 241.161 480.566 241.39C480.341 241.62 480.041 241.815 479.667 241.976C479.292 242.137 478.836 242.217 478.296 242.217ZM478.514 240.938C479.077 240.938 479.552 240.827 479.938 240.605C480.329 240.384 480.623 240.098 480.82 239.748C481.021 239.398 481.122 239.03 481.122 238.643V237.339C481.061 237.412 480.928 237.478 480.723 237.539C480.522 237.595 480.289 237.645 480.023 237.69C479.761 237.73 479.506 237.766 479.256 237.798C479.011 237.826 478.811 237.851 478.659 237.871C478.288 237.919 477.942 237.998 477.62 238.106C477.302 238.211 477.045 238.37 476.847 238.583C476.654 238.792 476.558 239.078 476.558 239.44C476.558 239.935 476.741 240.31 477.107 240.563C477.477 240.813 477.946 240.938 478.514 240.938ZM491.715 234.804L490.435 235.166C490.355 234.953 490.236 234.746 490.079 234.544C489.926 234.339 489.717 234.17 489.451 234.037C489.185 233.904 488.845 233.838 488.431 233.838C487.863 233.838 487.39 233.969 487.012 234.23C486.638 234.488 486.451 234.816 486.451 235.214C486.451 235.569 486.58 235.848 486.837 236.054C487.095 236.259 487.497 236.43 488.044 236.567L489.421 236.905C490.25 237.106 490.868 237.414 491.274 237.828C491.681 238.239 491.884 238.768 491.884 239.416C491.884 239.947 491.731 240.422 491.425 240.841C491.123 241.259 490.701 241.589 490.157 241.831C489.614 242.072 488.982 242.193 488.262 242.193C487.316 242.193 486.533 241.988 485.913 241.577C485.294 241.167 484.901 240.567 484.736 239.778L486.089 239.44C486.217 239.939 486.461 240.314 486.819 240.563C487.181 240.813 487.654 240.938 488.238 240.938C488.902 240.938 489.429 240.797 489.819 240.515C490.214 240.229 490.411 239.887 490.411 239.489C490.411 239.167 490.298 238.897 490.073 238.68C489.848 238.458 489.501 238.293 489.035 238.185L487.489 237.822C486.64 237.621 486.016 237.309 485.618 236.887C485.223 236.46 485.026 235.927 485.026 235.287C485.026 234.764 485.173 234.301 485.467 233.898C485.765 233.496 486.169 233.18 486.68 232.951C487.195 232.721 487.779 232.607 488.431 232.607C489.348 232.607 490.069 232.808 490.592 233.21C491.119 233.613 491.494 234.144 491.715 234.804ZM494.029 242V232.727H495.405V234.176H495.526C495.719 233.681 496.031 233.297 496.461 233.023C496.892 232.745 497.409 232.607 498.013 232.607C498.625 232.607 499.134 232.745 499.54 233.023C499.951 233.297 500.271 233.681 500.5 234.176H500.597C500.834 233.697 501.19 233.317 501.665 233.035C502.14 232.749 502.71 232.607 503.374 232.607C504.203 232.607 504.881 232.866 505.408 233.385C505.935 233.9 506.199 234.703 506.199 235.794V242H504.774V235.794C504.774 235.11 504.587 234.621 504.213 234.327C503.839 234.033 503.398 233.886 502.891 233.886C502.239 233.886 501.734 234.084 501.376 234.478C501.017 234.868 500.838 235.363 500.838 235.963V242H499.389V235.649C499.389 235.122 499.218 234.697 498.876 234.375C498.534 234.049 498.093 233.886 497.554 233.886C497.184 233.886 496.838 233.985 496.516 234.182C496.198 234.379 495.94 234.653 495.743 235.003C495.55 235.349 495.453 235.75 495.453 236.205V242H494.029Z" fill="#999999"/>
</g>
<defs>
<filter id="filter0_d_2_2" x="54" y="170.128" width="30.1429" height="30.1428" filterUnits="userSpaceOnUse" color-interpolation-filters="sRGB">
<feFlood flood-opacity="0" result="BackgroundImageFix"/>
<feColorMatrix in="SourceAlpha" type="matrix" values="0 0 0 0 0 0 0 0 0 0 0 0 0 0 0 0 0 0 127 0" result="hardAlpha"/>
<feOffset/>
<feGaussianBlur stdDeviation="2"/>
<feComposite in2="hardAlpha" operator="out"/>
<feColorMatrix type="matrix" values="0 0 0 0 0.138021 0 0 0 0 0.175663 0 0 0 0 0.220833 0 0 0 1 0"/>
<feBlend mode="normal" in2="BackgroundImageFix" result="effect1_dropShadow_2_2"/>
<feBlend mode="normal" in="SourceGraphic" in2="effect1_dropShadow_2_2" result="shape"/>
</filter>
<filter id="filter1_d_2_2" x="120.429" y="174.128" width="30.1429" height="30.1428" filterUnits="userSpaceOnUse" color-interpolation-filters="sRGB">
<feFlood flood-opacity="0" result="BackgroundImageFix"/>
<feColorMatrix in="SourceAlpha" type="matrix" values="0 0 0 0 0 0 0 0 0 0 0 0 0 0 0 0 0 0 127 0" result="hardAlpha"/>
<feOffset dy="4"/>
<feGaussianBlur stdDeviation="2"/>
<feComposite in2="hardAlpha" operator="out"/>
<feColorMatrix type="matrix" values="0 0 0 0 0 0 0 0 0 0 0 0 0 0 0 0 0 0 0.35 0"/>
<feBlend mode="normal" in2="BackgroundImageFix" result="effect1_dropShadow_2_2"/>
<feBlend mode="normal" in="SourceGraphic" in2="effect1_dropShadow_2_2" result="shape"/>
</filter>
<filter id="filter2_d_2_2" x="186.857" y="174.128" width="30.1429" height="30.1428" filterUnits="userSpaceOnUse" color-interpolation-filters="sRGB">
<feFlood flood-opacity="0" result="BackgroundImageFix"/>
<feColorMatrix in="SourceAlpha" type="matrix" values="0 0 0 0 0 0 0 0 0 0 0 0 0 0 0 0 0 0 127 0" result="hardAlpha"/>
<feOffset dy="4"/>
<feGaussianBlur stdDeviation="2"/>
<feComposite in2="hardAlpha" operator="out"/>
<feColorMatrix type="matrix" values="0 0 0 0 0 0 0 0 0 0 0 0 0 0 0 0 0 0 0.35 0"/>
<feBlend mode="normal" in2="BackgroundImageFix" result="effect1_dropShadow_2_2"/>
<feBlend mode="normal" in="SourceGraphic" in2="effect1_dropShadow_2_2" result="shape"/>
</filter>
<linearGradient id="paint0_linear_2_2" x1="69.0714" y1="185.2" x2="201.929" y2="185.2" gradientUnits="userSpaceOnUse">
<stop stop-color="#FA845F"/>
<stop offset="1" stop-color="#E4663F"/>
</linearGradient>
<clipPath id="clip0_2_2">
<rect width="1066" height="400" fill="white"/>
</clipPath>
</defs>
</svg>
