<svg width="733" height="254" viewBox="0 0 733 254" fill="none" xmlns="http://www.w3.org/2000/svg">
<path d="M312 184.752V167.748H322.262V169.575H314.059V175.32H321.731V177.147H314.059V182.925H322.395V184.752H312Z" fill="#999999"/>
<path d="M336.136 171.999L331.42 184.752H329.427L324.711 171.999H326.837L330.357 182.162H330.49L334.01 171.999H336.136Z" fill="#999999"/>
<path d="M343.612 185.018C342.383 185.018 341.324 184.746 340.432 184.204C339.547 183.656 338.863 182.892 338.382 181.913C337.906 180.927 337.668 179.782 337.668 178.475C337.668 177.169 337.906 176.018 338.382 175.021C338.863 174.019 339.533 173.239 340.391 172.68C341.254 172.115 342.262 171.833 343.413 171.833C344.077 171.833 344.733 171.944 345.381 172.165C346.028 172.387 346.618 172.746 347.149 173.245C347.681 173.737 348.104 174.39 348.42 175.204C348.735 176.018 348.893 177.02 348.893 178.21V179.04H339.062V177.346H346.9C346.9 176.627 346.756 175.984 346.468 175.42C346.186 174.855 345.782 174.41 345.256 174.083C344.736 173.757 344.122 173.593 343.413 173.593C342.633 173.593 341.957 173.787 341.387 174.174C340.823 174.556 340.388 175.055 340.084 175.669C339.779 176.283 339.627 176.942 339.627 177.645V178.774C339.627 179.737 339.793 180.554 340.125 181.223C340.463 181.888 340.931 182.394 341.528 182.743C342.126 183.086 342.821 183.258 343.612 183.258C344.127 183.258 344.592 183.186 345.007 183.042C345.428 182.892 345.79 182.671 346.095 182.377C346.399 182.079 346.634 181.708 346.8 181.265L348.694 181.796C348.494 182.438 348.159 183.003 347.689 183.49C347.218 183.972 346.637 184.348 345.945 184.619C345.253 184.885 344.476 185.018 343.612 185.018Z" fill="#999999"/>
<path d="M353.833 177.08V184.752H351.873V171.999H353.766V173.992H353.932C354.231 173.344 354.685 172.824 355.294 172.431C355.903 172.032 356.689 171.833 357.652 171.833C358.516 171.833 359.271 172.01 359.919 172.364C360.566 172.713 361.07 173.245 361.43 173.959C361.79 174.667 361.969 175.564 361.969 176.649V184.752H360.01V176.781C360.01 175.78 359.75 174.999 359.23 174.44C358.709 173.876 357.995 173.593 357.087 173.593C356.462 173.593 355.903 173.729 355.41 174C354.923 174.271 354.539 174.667 354.256 175.187C353.974 175.708 353.833 176.339 353.833 177.08Z" fill="#999999"/>
<path d="M371.096 171.999V173.66H364.487V171.999H371.096ZM366.413 168.944H368.373V181.099C368.373 181.652 368.453 182.068 368.614 182.344C368.78 182.615 368.99 182.798 369.245 182.892C369.505 182.981 369.779 183.025 370.067 183.025C370.282 183.025 370.46 183.014 370.598 182.992C370.736 182.964 370.847 182.942 370.93 182.925L371.329 184.686C371.196 184.735 371.01 184.785 370.772 184.835C370.534 184.89 370.233 184.918 369.867 184.918C369.314 184.918 368.771 184.799 368.24 184.561C367.714 184.323 367.277 183.961 366.928 183.473C366.585 182.986 366.413 182.372 366.413 181.63V168.944Z" fill="#999999"/>
<path d="M389.652 174.855L387.892 175.353C387.782 175.06 387.618 174.775 387.402 174.498C387.192 174.216 386.904 173.984 386.539 173.801C386.174 173.618 385.706 173.527 385.136 173.527C384.355 173.527 383.705 173.707 383.185 174.067C382.67 174.421 382.413 174.872 382.413 175.42C382.413 175.907 382.59 176.292 382.944 176.574C383.298 176.856 383.852 177.091 384.604 177.28L386.497 177.745C387.638 178.021 388.487 178.445 389.046 179.015C389.605 179.579 389.885 180.307 389.885 181.198C389.885 181.929 389.675 182.582 389.254 183.158C388.839 183.734 388.258 184.187 387.51 184.52C386.763 184.852 385.894 185.018 384.903 185.018C383.603 185.018 382.526 184.735 381.674 184.171C380.821 183.606 380.282 182.782 380.055 181.697L381.914 181.232C382.092 181.918 382.426 182.433 382.919 182.776C383.417 183.119 384.068 183.291 384.87 183.291C385.783 183.291 386.509 183.097 387.045 182.71C387.588 182.317 387.859 181.846 387.859 181.298C387.859 180.855 387.704 180.484 387.394 180.186C387.084 179.881 386.608 179.654 385.966 179.505L383.841 179.007C382.673 178.73 381.815 178.301 381.267 177.72C380.724 177.133 380.453 176.4 380.453 175.519C380.453 174.8 380.655 174.163 381.059 173.61C381.469 173.056 382.025 172.622 382.728 172.306C383.437 171.991 384.239 171.833 385.136 171.833C386.398 171.833 387.389 172.11 388.108 172.663C388.833 173.217 389.348 173.948 389.652 174.855Z" fill="#999999"/>
<path d="M398.015 185.018C396.864 185.018 395.854 184.744 394.985 184.196C394.121 183.648 393.446 182.881 392.959 181.896C392.477 180.911 392.237 179.759 392.237 178.442C392.237 177.114 392.477 175.954 392.959 174.963C393.446 173.972 394.121 173.203 394.985 172.655C395.854 172.107 396.864 171.833 398.015 171.833C399.167 171.833 400.174 172.107 401.037 172.655C401.906 173.203 402.582 173.972 403.063 174.963C403.55 175.954 403.794 177.114 403.794 178.442C403.794 179.759 403.55 180.911 403.063 181.896C402.582 182.881 401.906 183.648 401.037 184.196C400.174 184.744 399.167 185.018 398.015 185.018ZM398.015 183.258C398.89 183.258 399.609 183.033 400.174 182.585C400.739 182.137 401.156 181.547 401.428 180.817C401.699 180.086 401.835 179.294 401.835 178.442C401.835 177.59 401.699 176.795 401.428 176.059C401.156 175.323 400.739 174.728 400.174 174.274C399.609 173.82 398.89 173.593 398.015 173.593C397.141 173.593 396.421 173.82 395.857 174.274C395.292 174.728 394.874 175.323 394.603 176.059C394.332 176.795 394.196 177.59 394.196 178.442C394.196 179.294 394.332 180.086 394.603 180.817C394.874 181.547 395.292 182.137 395.857 182.585C396.421 183.033 397.141 183.258 398.015 183.258Z" fill="#999999"/>
<path d="M414.822 179.538V171.999H416.781V184.752H414.822V182.593H414.689C414.39 183.241 413.925 183.792 413.294 184.246C412.663 184.694 411.866 184.918 410.903 184.918C410.106 184.918 409.398 184.744 408.778 184.395C408.158 184.041 407.671 183.509 407.316 182.801C406.962 182.087 406.785 181.187 406.785 180.103V171.999H408.744V179.97C408.744 180.9 409.005 181.641 409.525 182.195C410.051 182.748 410.72 183.025 411.534 183.025C412.021 183.025 412.517 182.901 413.02 182.651C413.529 182.402 413.956 182.02 414.299 181.506C414.648 180.991 414.822 180.335 414.822 179.538Z" fill="#999999"/>
<path d="M420.37 184.752V171.999H422.263V173.925H422.396C422.628 173.294 423.049 172.782 423.658 172.389C424.267 171.996 424.953 171.8 425.717 171.8C425.861 171.8 426.041 171.803 426.257 171.808C426.473 171.814 426.636 171.822 426.747 171.833V173.826C426.68 173.809 426.528 173.784 426.29 173.751C426.057 173.712 425.811 173.693 425.551 173.693C424.931 173.693 424.378 173.823 423.89 174.083C423.409 174.338 423.027 174.692 422.745 175.146C422.468 175.594 422.33 176.106 422.33 176.682V184.752H420.37Z" fill="#999999"/>
<path d="M433.862 185.018C432.666 185.018 431.637 184.735 430.773 184.171C429.91 183.606 429.246 182.829 428.781 181.838C428.316 180.847 428.083 179.715 428.083 178.442C428.083 177.147 428.321 176.004 428.797 175.013C429.279 174.017 429.949 173.239 430.807 172.68C431.67 172.115 432.677 171.833 433.829 171.833C434.725 171.833 435.534 171.999 436.253 172.331C436.973 172.663 437.562 173.128 438.022 173.726C438.481 174.324 438.766 175.021 438.877 175.818H436.917C436.768 175.237 436.436 174.722 435.921 174.274C435.412 173.82 434.725 173.593 433.862 173.593C433.098 173.593 432.428 173.793 431.853 174.191C431.283 174.584 430.837 175.14 430.516 175.86C430.2 176.574 430.043 177.412 430.043 178.376C430.043 179.361 430.198 180.219 430.508 180.949C430.823 181.68 431.266 182.247 431.836 182.651C432.412 183.056 433.087 183.258 433.862 183.258C434.371 183.258 434.833 183.169 435.248 182.992C435.664 182.815 436.015 182.56 436.303 182.228C436.591 181.896 436.796 181.497 436.917 181.032H438.877C438.766 181.785 438.492 182.463 438.055 183.067C437.623 183.664 437.05 184.14 436.336 184.495C435.628 184.843 434.803 185.018 433.862 185.018Z" fill="#999999"/>
<path d="M441.741 184.752V171.999H443.701V184.752H441.741ZM442.737 169.874C442.356 169.874 442.026 169.744 441.749 169.483C441.478 169.223 441.343 168.911 441.343 168.545C441.343 168.18 441.478 167.867 441.749 167.607C442.026 167.347 442.356 167.217 442.737 167.217C443.119 167.217 443.446 167.347 443.717 167.607C443.994 167.867 444.132 168.18 444.132 168.545C444.132 168.911 443.994 169.223 443.717 169.483C443.446 169.744 443.119 169.874 442.737 169.874Z" fill="#999999"/>
<path d="M449.249 177.08V184.752H447.289V171.999H449.182V173.992H449.348C449.647 173.344 450.101 172.824 450.71 172.431C451.319 172.032 452.105 171.833 453.068 171.833C453.931 171.833 454.687 172.01 455.335 172.364C455.982 172.713 456.486 173.245 456.846 173.959C457.205 174.667 457.385 175.564 457.385 176.649V184.752H455.426V176.781C455.426 175.78 455.166 174.999 454.646 174.44C454.125 173.876 453.411 173.593 452.503 173.593C451.878 173.593 451.319 173.729 450.826 174C450.339 174.271 449.955 174.667 449.672 175.187C449.39 175.708 449.249 176.339 449.249 177.08Z" fill="#999999"/>
<path d="M466.114 189.8C465.167 189.8 464.353 189.678 463.673 189.435C462.992 189.197 462.424 188.881 461.971 188.488C461.522 188.101 461.165 187.686 460.899 187.243L462.46 186.147C462.637 186.379 462.862 186.645 463.133 186.944C463.404 187.248 463.775 187.511 464.245 187.733C464.721 187.96 465.344 188.073 466.114 188.073C467.143 188.073 467.993 187.824 468.662 187.326C469.332 186.828 469.667 186.047 469.667 184.984V182.394H469.501C469.357 182.627 469.152 182.914 468.887 183.258C468.626 183.595 468.25 183.897 467.757 184.163C467.27 184.423 466.612 184.553 465.781 184.553C464.752 184.553 463.828 184.309 463.008 183.822C462.195 183.335 461.55 182.627 461.074 181.697C460.603 180.767 460.368 179.638 460.368 178.309C460.368 177.003 460.598 175.865 461.057 174.897C461.517 173.923 462.156 173.17 462.975 172.638C463.794 172.102 464.741 171.833 465.815 171.833C466.645 171.833 467.304 171.972 467.791 172.248C468.283 172.519 468.66 172.829 468.92 173.178C469.186 173.521 469.39 173.804 469.534 174.025H469.733V171.999H471.626V185.117C471.626 186.213 471.377 187.104 470.879 187.791C470.387 188.483 469.722 188.989 468.887 189.31C468.056 189.637 467.132 189.8 466.114 189.8ZM466.047 182.793C466.833 182.793 467.497 182.613 468.04 182.253C468.582 181.893 468.995 181.376 469.277 180.7C469.559 180.025 469.7 179.217 469.7 178.276C469.7 177.357 469.562 176.546 469.285 175.843C469.008 175.14 468.599 174.59 468.056 174.191C467.514 173.793 466.844 173.593 466.047 173.593C465.217 173.593 464.525 173.804 463.971 174.224C463.423 174.645 463.011 175.21 462.734 175.918C462.463 176.627 462.328 177.412 462.328 178.276C462.328 179.162 462.466 179.945 462.743 180.626C463.025 181.301 463.44 181.832 463.988 182.22C464.542 182.602 465.228 182.793 466.047 182.793Z" fill="#999999"/>
<path d="M481.789 184.752V171.999H483.682V173.925H483.815C484.047 173.294 484.468 172.782 485.077 172.389C485.686 171.996 486.372 171.8 487.136 171.8C487.28 171.8 487.46 171.803 487.675 171.808C487.891 171.814 488.055 171.822 488.165 171.833V173.826C488.099 173.809 487.947 173.784 487.709 173.751C487.476 173.712 487.23 173.693 486.97 173.693C486.35 173.693 485.796 173.823 485.309 174.083C484.828 174.338 484.446 174.692 484.163 175.146C483.887 175.594 483.748 176.106 483.748 176.682V184.752H481.789Z" fill="#999999"/>
<path d="M498.525 179.538V171.999H500.484V184.752H498.525V182.593H498.392C498.093 183.241 497.628 183.792 496.997 184.246C496.366 184.694 495.569 184.918 494.606 184.918C493.809 184.918 493.101 184.744 492.481 184.395C491.861 184.041 491.374 183.509 491.019 182.801C490.665 182.087 490.488 181.187 490.488 180.103V171.999H492.447V179.97C492.447 180.9 492.708 181.641 493.228 182.195C493.754 182.748 494.423 183.025 495.237 183.025C495.724 183.025 496.22 182.901 496.723 182.651C497.233 182.402 497.659 182.02 498.002 181.506C498.351 180.991 498.525 180.335 498.525 179.538Z" fill="#999999"/>
<path d="M506.033 177.08V184.752H504.073V171.999H505.966V173.992H506.132C506.431 173.344 506.885 172.824 507.494 172.431C508.103 172.032 508.889 171.833 509.852 171.833C510.715 171.833 511.471 172.01 512.118 172.364C512.766 172.713 513.27 173.245 513.63 173.959C513.989 174.667 514.169 175.564 514.169 176.649V184.752H512.21V176.781C512.21 175.78 511.95 174.999 511.429 174.44C510.909 173.876 510.195 173.593 509.287 173.593C508.662 173.593 508.103 173.729 507.61 174C507.123 174.271 506.738 174.667 506.456 175.187C506.174 175.708 506.033 176.339 506.033 177.08Z" fill="#999999"/>
<path d="M523.296 171.999V173.66H516.687V171.999H523.296ZM518.613 168.944H520.573V181.099C520.573 181.652 520.653 182.068 520.813 182.344C520.979 182.615 521.19 182.798 521.444 182.892C521.705 182.981 521.979 183.025 522.266 183.025C522.482 183.025 522.659 183.014 522.798 182.992C522.936 182.964 523.047 182.942 523.13 182.925L523.528 184.686C523.395 184.735 523.21 184.785 522.972 184.835C522.734 184.89 522.432 184.918 522.067 184.918C521.514 184.918 520.971 184.799 520.44 184.561C519.914 184.323 519.477 183.961 519.128 183.473C518.785 182.986 518.613 182.372 518.613 181.63V168.944Z" fill="#999999"/>
<path d="M526.243 184.752V171.999H528.203V184.752H526.243ZM527.24 169.874C526.858 169.874 526.528 169.744 526.252 169.483C525.98 169.223 525.845 168.911 525.845 168.545C525.845 168.18 525.98 167.867 526.252 167.607C526.528 167.347 526.858 167.217 527.24 167.217C527.622 167.217 527.948 167.347 528.219 167.607C528.496 167.867 528.634 168.18 528.634 168.545C528.634 168.911 528.496 169.223 528.219 169.483C527.948 169.744 527.622 169.874 527.24 169.874Z" fill="#999999"/>
<path d="M531.792 184.752V171.999H533.685V173.992H533.851C534.116 173.311 534.545 172.782 535.137 172.406C535.73 172.024 536.441 171.833 537.271 171.833C538.113 171.833 538.813 172.024 539.372 172.406C539.936 172.782 540.376 173.311 540.692 173.992H540.825C541.151 173.333 541.641 172.81 542.294 172.423C542.948 172.03 543.731 171.833 544.644 171.833C545.784 171.833 546.717 172.19 547.442 172.904C548.167 173.613 548.53 174.717 548.53 176.217V184.752H546.57V176.217C546.57 175.276 546.313 174.603 545.798 174.199C545.283 173.795 544.677 173.593 543.98 173.593C543.083 173.593 542.388 173.865 541.896 174.407C541.403 174.944 541.157 175.625 541.157 176.449V184.752H539.164V176.018C539.164 175.293 538.929 174.709 538.459 174.266C537.988 173.817 537.382 173.593 536.64 173.593C536.131 173.593 535.655 173.729 535.212 174C534.775 174.271 534.421 174.648 534.149 175.129C533.884 175.605 533.751 176.156 533.751 176.781V184.752H531.792Z" fill="#999999"/>
<path d="M557.459 185.018C556.23 185.018 555.17 184.746 554.279 184.204C553.394 183.656 552.71 182.892 552.228 181.913C551.752 180.927 551.514 179.782 551.514 178.475C551.514 177.169 551.752 176.018 552.228 175.021C552.71 174.019 553.38 173.239 554.238 172.68C555.101 172.115 556.109 171.833 557.26 171.833C557.924 171.833 558.58 171.944 559.228 172.165C559.875 172.387 560.465 172.746 560.996 173.245C561.527 173.737 561.951 174.39 562.266 175.204C562.582 176.018 562.74 177.02 562.74 178.21V179.04H552.909V177.346H560.747C560.747 176.627 560.603 175.984 560.315 175.42C560.033 174.855 559.629 174.41 559.103 174.083C558.583 173.757 557.968 173.593 557.26 173.593C556.479 173.593 555.804 173.787 555.234 174.174C554.669 174.556 554.235 175.055 553.931 175.669C553.626 176.283 553.474 176.942 553.474 177.645V178.774C553.474 179.737 553.64 180.554 553.972 181.223C554.31 181.888 554.777 182.394 555.375 182.743C555.973 183.086 556.668 183.258 557.459 183.258C557.974 183.258 558.439 183.186 558.854 183.042C559.275 182.892 559.637 182.671 559.942 182.377C560.246 182.079 560.481 181.708 560.647 181.265L562.54 181.796C562.341 182.438 562.006 183.003 561.536 183.49C561.065 183.972 560.484 184.348 559.792 184.619C559.1 184.885 558.323 185.018 557.459 185.018Z" fill="#999999"/>
<path d="M577.975 171.999V173.66H571.1V171.999H577.975ZM573.159 184.752V170.239C573.159 169.508 573.331 168.9 573.674 168.412C574.017 167.925 574.463 167.56 575.011 167.316C575.559 167.073 576.137 166.951 576.746 166.951C577.228 166.951 577.621 166.99 577.925 167.067C578.23 167.145 578.456 167.217 578.606 167.283L578.041 168.977C577.942 168.944 577.803 168.902 577.626 168.852C577.455 168.803 577.228 168.778 576.945 168.778C576.298 168.778 575.83 168.941 575.542 169.268C575.26 169.594 575.119 170.073 575.119 170.704V184.752H573.159Z" fill="#999999"/>
<path d="M585.377 185.018C584.225 185.018 583.215 184.744 582.346 184.196C581.483 183.648 580.808 182.881 580.32 181.896C579.839 180.911 579.598 179.759 579.598 178.442C579.598 177.114 579.839 175.954 580.32 174.963C580.808 173.972 581.483 173.203 582.346 172.655C583.215 172.107 584.225 171.833 585.377 171.833C586.528 171.833 587.535 172.107 588.399 172.655C589.268 173.203 589.943 173.972 590.425 174.963C590.912 175.954 591.155 177.114 591.155 178.442C591.155 179.759 590.912 180.911 590.425 181.896C589.943 182.881 589.268 183.648 588.399 184.196C587.535 184.744 586.528 185.018 585.377 185.018ZM585.377 183.258C586.251 183.258 586.971 183.033 587.535 182.585C588.1 182.137 588.518 181.547 588.789 180.817C589.06 180.086 589.196 179.294 589.196 178.442C589.196 177.59 589.06 176.795 588.789 176.059C588.518 175.323 588.1 174.728 587.535 174.274C586.971 173.82 586.251 173.593 585.377 173.593C584.502 173.593 583.783 173.82 583.218 174.274C582.653 174.728 582.236 175.323 581.964 176.059C581.693 176.795 581.558 177.59 581.558 178.442C581.558 179.294 581.693 180.086 581.964 180.817C582.236 181.547 582.653 182.137 583.218 182.585C583.783 183.033 584.502 183.258 585.377 183.258Z" fill="#999999"/>
<path d="M594.146 184.752V171.999H596.039V173.925H596.172C596.405 173.294 596.825 172.782 597.434 172.389C598.043 171.996 598.729 171.8 599.493 171.8C599.637 171.8 599.817 171.803 600.033 171.808C600.249 171.814 600.412 171.822 600.523 171.833V173.826C600.456 173.809 600.304 173.784 600.066 173.751C599.834 173.712 599.587 173.693 599.327 173.693C598.707 173.693 598.154 173.823 597.667 174.083C597.185 174.338 596.803 174.692 596.521 175.146C596.244 175.594 596.106 176.106 596.106 176.682V184.752H594.146Z" fill="#999999"/>
<path d="M612.31 184.752L608.425 171.999H610.484L613.24 181.763H613.373L616.096 171.999H618.189L620.879 181.73H621.012L623.768 171.999H625.827L621.942 184.752H620.015L617.226 174.955H617.026L614.237 184.752H612.31Z" fill="#999999"/>
<path d="M632.17 185.051C631.362 185.051 630.629 184.899 629.97 184.594C629.312 184.284 628.788 183.839 628.401 183.258C628.014 182.671 627.82 181.962 627.82 181.132C627.82 180.401 627.964 179.809 628.252 179.355C628.539 178.896 628.924 178.536 629.406 178.276C629.887 178.016 630.419 177.822 631 177.695C631.586 177.562 632.176 177.457 632.768 177.379C633.543 177.28 634.171 177.205 634.653 177.155C635.14 177.1 635.494 177.008 635.716 176.881C635.943 176.754 636.056 176.532 636.056 176.217V176.15C636.056 175.331 635.832 174.695 635.384 174.241C634.941 173.787 634.268 173.56 633.366 173.56C632.431 173.56 631.697 173.765 631.166 174.174C630.634 174.584 630.261 175.021 630.045 175.486L628.185 174.822C628.517 174.047 628.96 173.444 629.514 173.012C630.073 172.575 630.681 172.27 631.34 172.099C632.004 171.922 632.657 171.833 633.3 171.833C633.709 171.833 634.18 171.883 634.711 171.983C635.248 172.077 635.765 172.273 636.264 172.572C636.767 172.871 637.185 173.322 637.517 173.925C637.849 174.529 638.015 175.337 638.015 176.35V184.752H636.056V183.025H635.956C635.824 183.302 635.602 183.598 635.292 183.913C634.982 184.229 634.57 184.497 634.055 184.719C633.54 184.94 632.912 185.051 632.17 185.051ZM632.469 183.291C633.244 183.291 633.897 183.139 634.429 182.834C634.966 182.53 635.37 182.137 635.641 181.655C635.918 181.174 636.056 180.667 636.056 180.136V178.342C635.973 178.442 635.79 178.533 635.508 178.616C635.231 178.694 634.91 178.763 634.545 178.824C634.185 178.879 633.834 178.929 633.491 178.973C633.153 179.012 632.879 179.045 632.669 179.073C632.159 179.139 631.683 179.247 631.24 179.397C630.803 179.541 630.449 179.759 630.178 180.053C629.912 180.341 629.779 180.734 629.779 181.232C629.779 181.913 630.031 182.427 630.535 182.776C631.044 183.119 631.689 183.291 632.469 183.291Z" fill="#999999"/>
<path d="M650.625 174.855L648.865 175.353C648.754 175.06 648.591 174.775 648.375 174.498C648.165 174.216 647.877 173.984 647.512 173.801C647.146 173.618 646.679 173.527 646.108 173.527C645.328 173.527 644.678 173.707 644.157 174.067C643.643 174.421 643.385 174.872 643.385 175.42C643.385 175.907 643.562 176.292 643.917 176.574C644.271 176.856 644.824 177.091 645.577 177.28L647.47 177.745C648.61 178.021 649.46 178.445 650.019 179.015C650.578 179.579 650.858 180.307 650.858 181.198C650.858 181.929 650.647 182.582 650.227 183.158C649.811 183.734 649.23 184.187 648.483 184.52C647.736 184.852 646.867 185.018 645.876 185.018C644.575 185.018 643.499 184.735 642.646 184.171C641.794 183.606 641.254 182.782 641.027 181.697L642.887 181.232C643.064 181.918 643.399 182.433 643.892 182.776C644.39 183.119 645.04 183.291 645.843 183.291C646.756 183.291 647.481 183.097 648.018 182.71C648.56 182.317 648.832 181.846 648.832 181.298C648.832 180.855 648.677 180.484 648.367 180.186C648.057 179.881 647.581 179.654 646.939 179.505L644.813 179.007C643.645 178.73 642.787 178.301 642.239 177.72C641.697 177.133 641.426 176.4 641.426 175.519C641.426 174.8 641.628 174.163 642.032 173.61C642.441 173.056 642.998 172.622 643.701 172.306C644.409 171.991 645.212 171.833 646.108 171.833C647.37 171.833 648.361 172.11 649.081 172.663C649.806 173.217 650.321 173.948 650.625 174.855Z" fill="#999999"/>
<path d="M653.807 184.752V171.999H655.7V173.992H655.866C656.132 173.311 656.561 172.782 657.153 172.406C657.745 172.024 658.457 171.833 659.287 171.833C660.128 171.833 660.828 172.024 661.387 172.406C661.952 172.782 662.392 173.311 662.707 173.992H662.84C663.167 173.333 663.657 172.81 664.31 172.423C664.963 172.03 665.746 171.833 666.66 171.833C667.8 171.833 668.732 172.19 669.458 172.904C670.183 173.613 670.545 174.717 670.545 176.217V184.752H668.586V176.217C668.586 175.276 668.328 174.603 667.814 174.199C667.299 173.795 666.693 173.593 665.995 173.593C665.099 173.593 664.404 173.865 663.911 174.407C663.419 174.944 663.172 175.625 663.172 176.449V184.752H661.18V176.018C661.18 175.293 660.945 174.709 660.474 174.266C660.004 173.817 659.397 173.593 658.656 173.593C658.147 173.593 657.671 173.729 657.228 174C656.79 174.271 656.436 174.648 656.165 175.129C655.899 175.605 655.766 176.156 655.766 176.781V184.752H653.807Z" fill="#999999"/>
<path d="M351.48 67.8001H291.16V85.6641H312.04V149H330.6V85.6641H351.48V67.8001Z" fill="#D62430"/>
<path d="M393.013 89.3761C385.357 89.3761 379.557 92.1601 376.425 96.4521V67.8001H359.025V149H376.425V117.332C376.425 109.096 380.833 105.384 387.213 105.384C392.781 105.384 397.305 108.748 397.305 115.94V149H414.705V113.388C414.705 97.7281 404.729 89.3761 393.013 89.3761Z" fill="#D62430"/>
<path d="M468.761 91.0001V96.4521C464.933 92.0441 459.249 89.3761 451.477 89.3761C436.281 89.3761 423.753 102.716 423.753 120C423.753 137.284 436.281 150.624 451.477 150.624C459.249 150.624 464.933 147.956 468.761 143.548V149H486.161V91.0001H468.761ZM454.957 134.152C446.953 134.152 441.153 128.7 441.153 120C441.153 111.3 446.953 105.848 454.957 105.848C462.961 105.848 468.761 111.3 468.761 120C468.761 128.7 462.961 134.152 454.957 134.152Z" fill="#D62430"/>
<path d="M498.927 149H516.327V64.3201H498.927V149Z" fill="#D62430"/>
<path d="M556.9 150.624C573.952 150.624 587.64 137.284 587.64 120C587.64 102.716 573.952 89.3761 556.9 89.3761C539.848 89.3761 526.16 102.716 526.16 120C526.16 137.284 539.848 150.624 556.9 150.624ZM556.9 133.688C549.36 133.688 543.56 128.236 543.56 120C543.56 111.764 549.36 106.312 556.9 106.312C564.44 106.312 570.24 111.764 570.24 120C570.24 128.236 564.44 133.688 556.9 133.688Z" fill="#D62430"/>
<g clip-path="url(#clip0_9_1429)">
<path fill-rule="evenodd" clip-rule="evenodd" d="M216.464 78.1046C216.373 77.3538 216.327 76.5894 216.327 75.8142C216.327 65.3549 224.806 56.876 235.265 56.876C245.724 56.876 254.203 65.3549 254.203 75.8142C254.203 86.2735 245.724 94.7524 235.265 94.7524C235.037 94.7524 234.81 94.7484 234.584 94.7404L175.371 153.953C170.573 158.752 162.792 158.752 157.993 153.953C153.194 149.154 153.194 141.374 157.993 136.575L216.464 78.1046Z" fill="url(#paint0_linear_9_1429)"/>
<path fill-rule="evenodd" clip-rule="evenodd" d="M100.536 175.01C100.627 175.76 100.673 176.525 100.673 177.3C100.673 187.759 92.1944 196.238 81.7351 196.238C71.2758 196.238 62.7969 187.759 62.7969 177.3C62.7969 166.841 71.2758 158.362 81.7351 158.362C81.963 158.362 82.1899 158.366 82.4158 158.374L141.629 99.161C146.427 94.3622 154.208 94.3622 159.007 99.161C163.806 103.96 163.806 111.74 159.007 116.539L100.536 175.01Z" fill="url(#paint1_linear_9_1429)"/>
<g filter="url(#filter0_d_9_1429)">
<path fill-rule="evenodd" clip-rule="evenodd" d="M254.203 177.3C254.203 166.841 245.724 158.362 235.265 158.362C234.98 158.362 234.697 158.368 234.415 158.381L177.197 101.163C177.261 100.528 177.294 99.885 177.294 99.234C177.294 88.7747 168.815 80.2958 158.355 80.2958C147.896 80.2958 139.417 88.7747 139.417 99.234C139.417 109.693 147.896 118.172 158.355 118.172C158.713 118.172 159.068 118.162 159.421 118.143L216.445 175.167C216.367 175.867 216.327 176.579 216.327 177.3C216.327 187.759 224.806 196.238 235.265 196.238C245.724 196.238 254.203 187.759 254.203 177.3Z" fill="url(#paint2_linear_9_1429)"/>
</g>
<g filter="url(#filter1_d_9_1429)">
<path fill-rule="evenodd" clip-rule="evenodd" d="M62.7969 75.8142C62.7969 86.2735 71.2758 94.7524 81.7351 94.7524C82.02 94.7524 82.3035 94.7461 82.5854 94.7337L139.803 151.952C139.739 152.586 139.706 153.229 139.706 153.88C139.706 164.34 148.185 172.818 158.645 172.818C169.104 172.818 177.583 164.34 177.583 153.88C177.583 143.421 169.104 134.942 158.645 134.942C158.287 134.942 157.932 134.952 157.579 134.971L100.555 77.9467C100.633 77.2467 100.673 76.5352 100.673 75.8142C100.673 65.3549 92.1944 56.876 81.7351 56.876C71.2758 56.876 62.7969 65.3549 62.7969 75.8142Z" fill="url(#paint3_linear_9_1429)"/>
</g>
<path fill-rule="evenodd" clip-rule="evenodd" d="M216.464 78.1046C216.373 77.3538 216.327 76.5894 216.327 75.8142C216.327 65.3549 224.806 56.876 235.265 56.876C245.724 56.876 254.203 65.3549 254.203 75.8142C254.203 86.2735 245.724 94.7524 235.265 94.7524C235.037 94.7524 234.81 94.7484 234.584 94.7404L175.371 153.953C170.573 158.752 162.792 158.752 157.993 153.953C153.194 149.154 153.194 141.374 157.993 136.575L216.464 78.1046Z" fill="#D62430"/>
<path fill-rule="evenodd" clip-rule="evenodd" d="M100.536 175.01C100.627 175.76 100.673 176.525 100.673 177.3C100.673 187.759 92.1944 196.238 81.7351 196.238C71.2758 196.238 62.7969 187.759 62.7969 177.3C62.7969 166.841 71.2758 158.362 81.7351 158.362C81.963 158.362 82.1899 158.366 82.4158 158.374L141.629 99.161C146.427 94.3622 154.208 94.3622 159.007 99.161C163.806 103.96 163.806 111.74 159.007 116.539L100.536 175.01Z" fill="#8CADE1"/>
<g filter="url(#filter2_d_9_1429)">
<path fill-rule="evenodd" clip-rule="evenodd" d="M254.203 177.3C254.203 166.841 245.724 158.362 235.265 158.362C234.98 158.362 234.697 158.368 234.415 158.381L177.197 101.163C177.261 100.528 177.294 99.8851 177.294 99.234C177.294 88.7747 168.815 80.2958 158.355 80.2958C147.896 80.2958 139.417 88.7747 139.417 99.234C139.417 109.693 147.896 118.172 158.355 118.172C158.713 118.172 159.068 118.162 159.421 118.143L216.445 175.167C216.367 175.868 216.327 176.579 216.327 177.3C216.327 187.759 224.806 196.238 235.265 196.238C245.724 196.238 254.203 187.759 254.203 177.3Z" fill="#8CADE1"/>
</g>
<g filter="url(#filter3_d_9_1429)">
<path fill-rule="evenodd" clip-rule="evenodd" d="M62.7969 75.8142C62.7969 86.2735 71.2758 94.7525 81.7351 94.7525C82.02 94.7525 82.3035 94.7462 82.5854 94.7337L139.803 151.952C139.739 152.586 139.706 153.229 139.706 153.88C139.706 164.34 148.185 172.818 158.645 172.818C169.104 172.818 177.583 164.34 177.583 153.88C177.583 143.421 169.104 134.942 158.645 134.942C158.287 134.942 157.932 134.952 157.579 134.971L100.555 77.9468C100.633 77.2467 100.673 76.5352 100.673 75.8142C100.673 65.3549 92.1944 56.876 81.7351 56.876C71.2758 56.876 62.7969 65.3549 62.7969 75.8142Z" fill="#D62430"/>
</g>
</g>
<defs>
<filter id="filter0_d_9_1429" x="131.417" y="80.2959" width="130.786" height="131.942" filterUnits="userSpaceOnUse" color-interpolation-filters="sRGB">
<feFlood flood-opacity="0" result="BackgroundImageFix"/>
<feColorMatrix in="SourceAlpha" type="matrix" values="0 0 0 0 0 0 0 0 0 0 0 0 0 0 0 0 0 0 127 0" result="hardAlpha"/>
<feOffset dy="8"/>
<feGaussianBlur stdDeviation="4"/>
<feComposite in2="hardAlpha" operator="out"/>
<feColorMatrix type="matrix" values="0 0 0 0 0 0 0 0 0 0 0 0 0 0 0 0 0 0 0.2 0"/>
<feBlend mode="normal" in2="BackgroundImageFix" result="effect1_dropShadow_9_1429"/>
<feBlend mode="normal" in="SourceGraphic" in2="effect1_dropShadow_9_1429" result="shape"/>
</filter>
<filter id="filter1_d_9_1429" x="54.7969" y="56.876" width="130.786" height="131.942" filterUnits="userSpaceOnUse" color-interpolation-filters="sRGB">
<feFlood flood-opacity="0" result="BackgroundImageFix"/>
<feColorMatrix in="SourceAlpha" type="matrix" values="0 0 0 0 0 0 0 0 0 0 0 0 0 0 0 0 0 0 127 0" result="hardAlpha"/>
<feOffset dy="8"/>
<feGaussianBlur stdDeviation="4"/>
<feComposite in2="hardAlpha" operator="out"/>
<feColorMatrix type="matrix" values="0 0 0 0 0 0 0 0 0 0 0 0 0 0 0 0 0 0 0.2 0"/>
<feBlend mode="normal" in2="BackgroundImageFix" result="effect1_dropShadow_9_1429"/>
<feBlend mode="normal" in="SourceGraphic" in2="effect1_dropShadow_9_1429" result="shape"/>
</filter>
<filter id="filter2_d_9_1429" x="131.417" y="80.2959" width="130.786" height="131.942" filterUnits="userSpaceOnUse" color-interpolation-filters="sRGB">
<feFlood flood-opacity="0" result="BackgroundImageFix"/>
<feColorMatrix in="SourceAlpha" type="matrix" values="0 0 0 0 0 0 0 0 0 0 0 0 0 0 0 0 0 0 127 0" result="hardAlpha"/>
<feOffset dy="8"/>
<feGaussianBlur stdDeviation="4"/>
<feComposite in2="hardAlpha" operator="out"/>
<feColorMatrix type="matrix" values="0 0 0 0 0 0 0 0 0 0 0 0 0 0 0 0 0 0 0.2 0"/>
<feBlend mode="normal" in2="BackgroundImageFix" result="effect1_dropShadow_9_1429"/>
<feBlend mode="normal" in="SourceGraphic" in2="effect1_dropShadow_9_1429" result="shape"/>
</filter>
<filter id="filter3_d_9_1429" x="54.7969" y="56.876" width="130.786" height="131.942" filterUnits="userSpaceOnUse" color-interpolation-filters="sRGB">
<feFlood flood-opacity="0" result="BackgroundImageFix"/>
<feColorMatrix in="SourceAlpha" type="matrix" values="0 0 0 0 0 0 0 0 0 0 0 0 0 0 0 0 0 0 127 0" result="hardAlpha"/>
<feOffset dy="8"/>
<feGaussianBlur stdDeviation="4"/>
<feComposite in2="hardAlpha" operator="out"/>
<feColorMatrix type="matrix" values="0 0 0 0 0 0 0 0 0 0 0 0 0 0 0 0 0 0 0.2 0"/>
<feBlend mode="normal" in2="BackgroundImageFix" result="effect1_dropShadow_9_1429"/>
<feBlend mode="normal" in="SourceGraphic" in2="effect1_dropShadow_9_1429" result="shape"/>
</filter>
<linearGradient id="paint0_linear_9_1429" x1="243.879" y1="49.8033" x2="188.988" y2="179.509" gradientUnits="userSpaceOnUse">
<stop stop-color="#CF7B17"/>
<stop offset="1" stop-color="#F4A950"/>
</linearGradient>
<linearGradient id="paint1_linear_9_1429" x1="73.1211" y1="203.311" x2="128.012" y2="73.6053" gradientUnits="userSpaceOnUse">
<stop stop-color="#CF7B17"/>
<stop offset="1" stop-color="#F4A950"/>
</linearGradient>
<linearGradient id="paint2_linear_9_1429" x1="223.266" y1="204.334" x2="183.51" y2="80.2958" gradientUnits="userSpaceOnUse">
<stop stop-color="#CF7B17"/>
<stop offset="0.0001" stop-color="#CF7B17"/>
<stop offset="1" stop-color="#F4A950"/>
</linearGradient>
<linearGradient id="paint3_linear_9_1429" x1="93.7341" y1="48.7802" x2="133.49" y2="172.818" gradientUnits="userSpaceOnUse">
<stop stop-color="#F4A950"/>
<stop offset="0.0001" stop-color="#F4A950"/>
<stop offset="1" stop-color="#CF7B17"/>
</linearGradient>
<clipPath id="clip0_9_1429">
<rect width="245" height="245" fill="white" transform="translate(36 4)"/>
</clipPath>
</defs>
</svg>
