<svg width="182" height="133" viewBox="0 0 182 133" fill="none" xmlns="http://www.w3.org/2000/svg">
<path fill-rule="evenodd" clip-rule="evenodd" d="M145.888 20.1726C145.802 19.4616 145.758 18.7378 145.758 18.0037C145.758 8.09935 153.787 0.0703125 163.692 0.0703125C173.596 0.0703125 181.625 8.09935 181.625 18.0037C181.625 27.908 173.596 35.937 163.692 35.937C163.476 35.937 163.261 35.9332 163.047 35.9256L106.976 91.9965C102.432 96.5407 95.0643 96.5407 90.5201 91.9965C85.976 87.4523 85.976 80.0847 90.5201 75.5405L145.888 20.1726Z" fill="url(#paint0_linear_22_200)"/>
<path fill-rule="evenodd" clip-rule="evenodd" d="M36.1119 111.936C36.1976 112.647 36.2417 113.37 36.2417 114.104C36.2417 124.009 28.2127 132.038 18.3083 132.038C8.40403 132.038 0.375 124.009 0.375 114.104C0.375 104.2 8.40403 96.1711 18.3083 96.1711C18.5241 96.1711 18.739 96.175 18.953 96.1825L75.0239 40.1116C79.5681 35.5674 86.9357 35.5674 91.4799 40.1116C96.024 44.6558 96.024 52.0234 91.4799 56.5676L36.1119 111.936Z" fill="url(#paint1_linear_22_200)"/>
<path fill-rule="evenodd" clip-rule="evenodd" d="M0.374939 18.0037C0.374939 27.908 8.40398 35.937 18.3083 35.937C18.5781 35.937 18.8465 35.9311 19.1135 35.9193L73.2953 90.1012C73.2346 90.7017 73.2035 91.3109 73.2035 91.9274C73.2035 101.832 81.2325 109.861 91.1368 109.861C101.041 109.861 109.07 101.832 109.07 91.9274C109.07 82.0231 101.041 73.9941 91.1368 73.9941C90.7983 73.9941 90.462 74.0034 90.1281 74.022L36.1292 20.0231C36.2035 19.3602 36.2416 18.6864 36.2416 18.0037C36.2416 8.09937 28.2126 0.0703409 18.3083 0.0703409C8.40398 0.0703409 0.374939 8.09937 0.374939 18.0037Z" fill="url(#paint2_linear_22_200)"/>
<path fill-rule="evenodd" clip-rule="evenodd" d="M181.625 114.104C181.625 104.2 173.596 96.1711 163.692 96.1711C163.422 96.1711 163.153 96.1771 162.887 96.1889L108.705 42.007C108.765 41.4065 108.796 40.7973 108.796 40.1808C108.796 30.2765 100.767 22.2474 90.8631 22.2474C80.9588 22.2474 72.9297 30.2765 72.9297 40.1808C72.9297 50.0851 80.9588 58.1141 90.8631 58.1141C91.2016 58.1141 91.538 58.1047 91.8719 58.0862L145.871 112.085C145.796 112.748 145.758 113.422 145.758 114.104C145.758 124.009 153.787 132.038 163.692 132.038C173.596 132.038 181.625 124.009 181.625 114.104Z" fill="url(#paint3_linear_22_200)"/>
<defs>
<linearGradient id="paint0_linear_22_200" x1="171.849" y1="-6.62709" x2="119.87" y2="116.196" gradientUnits="userSpaceOnUse">
<stop stop-color="#D62430"/>
<stop offset="1" stop-color="#F84948"/>
</linearGradient>
<linearGradient id="paint1_linear_22_200" x1="10.1514" y1="138.735" x2="62.13" y2="15.912" gradientUnits="userSpaceOnUse">
<stop stop-color="#6688BA"/>
<stop offset="1" stop-color="#8CADE1"/>
</linearGradient>
<linearGradient id="paint2_linear_22_200" x1="29.6707" y1="-7.59585" x2="67.317" y2="109.861" gradientUnits="userSpaceOnUse">
<stop stop-color="#D9D9D9" stop-opacity="0"/>
<stop offset="0.0001" stop-color="#F84948"/>
<stop offset="1" stop-color="#D62430"/>
</linearGradient>
<linearGradient id="paint3_linear_22_200" x1="152.329" y1="139.704" x2="114.683" y2="22.2474" gradientUnits="userSpaceOnUse">
<stop stop-color="#D9D9D9"/>
<stop offset="0.0001" stop-color="#6688BA"/>
<stop offset="1" stop-color="#8CADE1"/>
</linearGradient>
</defs>
</svg>
