<svg width="486" height="500" viewBox="0 0 486 500" fill="none" xmlns="http://www.w3.org/2000/svg">
<path d="M342.098 344.314C344.729 322.396 343.941 319.182 360.266 322.732L364.411 323.096C376.963 323.667 393.384 321.077 403.031 316.596C423.798 306.96 436.112 290.871 415.635 295.099C368.926 304.735 365.714 288.918 365.714 288.918C415.037 215.736 435.656 122.838 417.858 100.099C369.317 38.0737 285.292 67.404 283.886 68.1655L283.439 68.2481C274.21 66.3332 263.881 65.1891 252.278 65.0015C231.14 64.6542 215.101 70.5429 202.935 79.7711C202.935 79.7711 53.0397 18.0162 60.0131 157.434C61.4962 187.092 102.525 381.853 151.459 323.026C169.345 301.515 186.629 283.327 186.629 283.327C195.212 289.029 205.488 291.938 216.265 290.893L217.098 290.182C216.837 292.853 216.952 295.466 217.431 298.558C204.827 312.643 208.531 315.116 183.328 320.304C157.829 325.559 172.81 334.916 182.588 337.361C194.445 340.326 221.875 344.526 240.414 318.579L239.676 321.54C244.621 325.496 244.287 349.975 244.988 367.465C245.69 384.955 246.861 401.277 250.426 410.9C253.991 420.521 258.198 445.307 291.321 438.208C319.004 432.276 340.169 423.738 342.098 344.313" fill="black"/>
<path d="M342.098 344.314C344.729 322.396 343.941 319.182 360.266 322.732L364.411 323.096C376.963 323.667 393.384 321.077 403.031 316.596C423.798 306.96 436.112 290.871 415.635 295.099C368.926 304.735 365.714 288.918 365.714 288.918C415.037 215.736 435.656 122.838 417.858 100.099C369.317 38.0737 285.292 67.404 283.886 68.1655L283.439 68.2481C274.21 66.3332 263.881 65.1891 252.278 65.0015C231.14 64.6542 215.101 70.5429 202.935 79.7711C202.935 79.7711 53.0397 18.0162 60.0131 157.434C61.4962 187.092 102.525 381.853 151.459 323.026C169.345 301.515 186.629 283.327 186.629 283.327C195.212 289.029 205.488 291.938 216.265 290.893L217.098 290.182C216.837 292.853 216.952 295.466 217.431 298.558C204.827 312.643 208.531 315.116 183.328 320.304C157.829 325.559 172.81 334.916 182.588 337.361C194.445 340.326 221.875 344.526 240.414 318.579L239.676 321.54C244.621 325.496 244.287 349.975 244.988 367.465C245.69 384.955 246.861 401.277 250.426 410.9C253.991 420.521 258.198 445.307 291.321 438.208C319.004 432.276 340.169 423.738 342.098 344.313" stroke="black" stroke-width="49.8604"/>
<path d="M415.64 295.097C368.926 304.733 365.714 288.917 365.714 288.917C415.037 215.73 435.656 122.83 417.862 100.093C369.32 38.0719 285.292 67.404 283.89 68.1655L283.439 68.2463C274.21 66.3305 263.881 65.1891 252.272 64.9997C231.135 64.6533 215.101 70.5411 202.935 79.7674C202.935 79.7674 53.0369 18.0153 60.0084 157.432C61.4915 187.092 102.519 381.853 151.456 323.026C169.342 301.515 186.624 283.327 186.624 283.327C195.207 289.029 205.483 291.938 216.256 290.893L217.092 290.182C216.832 292.853 216.951 295.466 217.428 298.558C204.821 312.643 208.525 315.116 183.324 320.304C157.824 325.559 172.804 334.916 182.585 337.361C194.442 340.326 221.874 344.526 240.41 318.579L239.67 321.54C244.61 325.496 248.079 347.274 247.497 367.016C246.916 386.759 246.528 400.313 250.42 410.9C254.312 421.486 258.191 445.307 291.32 438.208C319.003 432.276 333.348 416.903 335.344 391.259C336.76 373.028 339.965 375.723 340.168 359.424L342.738 351.708C345.702 326.995 343.209 319.022 360.264 322.73L364.409 323.095C376.962 323.666 393.391 321.076 403.033 316.594C423.796 306.958 436.111 290.87 415.638 295.097H415.64Z" fill="#336791"/>
<path d="M242.415 309.263C241.129 355.247 242.739 401.552 247.238 412.805C251.74 424.059 261.375 445.948 294.508 438.85C322.188 432.916 332.259 421.432 336.629 396.083C339.848 377.434 346.054 325.64 346.849 315.028" stroke="white" stroke-width="16.6201" stroke-linecap="round" stroke-linejoin="round"/>
<path d="M202.704 78.7403C202.704 78.7403 52.7035 17.4331 59.6769 156.85C61.16 186.51 102.191 381.277 151.126 322.447C169.009 300.934 185.181 284.061 185.181 284.061" stroke="white" stroke-width="16.6201" stroke-linecap="round" stroke-linejoin="round"/>
<path d="M283.726 67.5507C278.533 69.1787 367.165 35.1503 417.535 99.5129C435.328 122.25 414.709 215.15 365.388 288.339" stroke="white" stroke-width="16.6201" stroke-linecap="round" stroke-linejoin="round"/>
<path d="M365.387 288.339C365.387 288.339 368.601 304.16 415.316 294.517C435.784 290.29 423.466 306.38 402.707 316.021C385.671 323.928 347.475 325.954 346.851 315.028C345.246 286.838 366.954 295.402 365.388 288.339C363.971 281.978 354.263 275.734 347.841 260.165C342.235 246.576 270.951 142.364 367.61 157.841C371.151 157.108 342.4 65.9005 251.941 64.4174C161.502 62.9343 164.469 175.637 164.469 175.637" stroke="white" stroke-width="16.6201" stroke-linecap="round" stroke-linejoin="bevel"/>
<path d="M217.098 297.979C204.489 312.064 208.198 314.537 182.994 319.726C157.494 324.982 172.476 334.337 182.254 336.781C194.112 339.748 221.544 343.949 240.079 317.995C245.723 310.093 240.046 297.484 232.292 294.27C228.546 292.719 223.537 290.774 217.098 297.979V297.979Z" stroke="white" stroke-width="16.6201" stroke-linecap="round" stroke-linejoin="round"/>
<path d="M216.272 297.733C215.002 289.452 218.993 279.598 223.271 268.07C229.699 250.772 244.531 233.472 232.666 178.602C223.823 137.714 164.505 170.093 164.468 175.637C164.432 181.179 167.151 203.739 163.477 230.009C158.684 264.289 185.29 293.281 215.928 290.315" stroke="white" stroke-width="16.6201" stroke-linecap="round" stroke-linejoin="round"/>
<path d="M202.158 174.806C201.891 176.699 205.625 181.752 210.494 182.428C215.355 183.105 219.515 179.157 219.779 177.265C220.043 175.371 216.313 173.286 211.442 172.608C206.579 171.929 202.417 172.917 202.159 174.806H202.158Z" fill="white" stroke="white" stroke-width="5.54"/>
<path d="M350.211 170.945C350.475 172.839 346.745 177.892 341.875 178.567C337.011 179.245 332.851 175.296 332.584 173.405C332.327 171.511 336.057 169.425 340.923 168.747C345.788 168.069 349.947 169.056 350.211 170.946V170.945Z" fill="white" stroke="white" stroke-width="2.77"/>
<path d="M367.61 157.841C368.411 172.694 364.411 182.811 363.906 198.623C363.16 221.605 374.864 247.911 357.228 274.249" stroke="white" stroke-width="16.6201" stroke-linecap="round" stroke-linejoin="round"/>
</svg>
