<svg width="576" height="125" viewBox="0 0 576 125" fill="none" xmlns="http://www.w3.org/2000/svg">
<path d="M256.108 3.46774H196V21.2688H216.806V84.3817H235.301V21.2688H256.108V3.46774Z" fill="#D62430"/>
<path d="M297.494 24.9677C289.865 24.9677 284.085 27.7419 280.964 32.0188V3.46774H263.625V84.3817H280.964V52.8253C280.964 44.6183 285.357 40.9194 291.714 40.9194C297.263 40.9194 301.771 44.2715 301.771 51.4382V84.3817H319.109V48.8952C319.109 33.2903 309.168 24.9677 297.494 24.9677Z" fill="#D62430"/>
<path d="M372.976 26.586V32.0188C369.161 27.6263 363.497 24.9677 355.753 24.9677C340.61 24.9677 328.126 38.2607 328.126 55.4839C328.126 72.707 340.61 86 355.753 86C363.497 86 369.161 83.3414 372.976 78.9489V84.3817H390.315V26.586H372.976ZM359.22 69.586C351.245 69.586 345.465 64.1532 345.465 55.4839C345.465 46.8145 351.245 41.3817 359.22 41.3817C367.196 41.3817 372.976 46.8145 372.976 55.4839C372.976 64.1532 367.196 69.586 359.22 69.586Z" fill="#D62430"/>
<path d="M403.035 84.3817H420.374V0H403.035V84.3817Z" fill="#D62430"/>
<path d="M460.804 86C477.796 86 491.435 72.707 491.435 55.4839C491.435 38.2607 477.796 24.9677 460.804 24.9677C443.812 24.9677 430.172 38.2607 430.172 55.4839C430.172 72.707 443.812 86 460.804 86ZM460.804 69.1237C453.29 69.1237 447.511 63.6909 447.511 55.4839C447.511 47.2769 453.29 41.8441 460.804 41.8441C468.317 41.8441 474.097 47.2769 474.097 55.4839C474.097 63.6909 468.317 69.1237 460.804 69.1237Z" fill="#D62430"/>
<path fill-rule="evenodd" clip-rule="evenodd" d="M138.191 19.018C138.109 18.3454 138.068 17.6606 138.068 16.9661C138.068 7.596 145.664 0 155.034 0C164.404 0 172 7.596 172 16.9661C172 26.3363 164.404 33.9323 155.034 33.9323C154.83 33.9323 154.626 33.9287 154.424 33.9215L101.377 86.9682C97.0781 91.2674 90.1079 91.2674 85.8088 86.9682C81.5097 82.6691 81.5097 75.6989 85.8088 71.3998L138.191 19.018Z" fill="#D62430"/>
<path fill-rule="evenodd" clip-rule="evenodd" d="M34.335 105.832C34.416 106.505 34.4578 107.189 34.4578 107.884C34.4578 117.254 26.8618 124.85 17.4916 124.85C8.12151 124.85 0.525513 117.254 0.525513 107.884C0.525513 98.5138 8.12151 90.9178 17.4916 90.9178C17.6958 90.9178 17.8991 90.9214 18.1016 90.9286L71.1483 37.8819C75.4474 33.5828 82.4176 33.5828 86.7167 37.8819C91.0158 42.181 91.0158 49.1512 86.7167 53.4503L34.335 105.832Z" fill="#8CADE1"/>
<path fill-rule="evenodd" clip-rule="evenodd" d="M172 107.884C172 98.5138 164.404 90.9178 155.034 90.9178C154.779 90.9178 154.525 90.9235 154.272 90.9346L103.012 39.675C103.07 39.1069 103.099 38.5306 103.099 37.9473C103.099 28.5772 95.5034 20.9812 86.1332 20.9812C76.7631 20.9812 69.1671 28.5772 69.1671 37.9473C69.1671 47.3174 76.7631 54.9134 86.1332 54.9134C86.4535 54.9134 86.7717 54.9046 87.0876 54.887L138.174 105.974C138.104 106.601 138.068 107.238 138.068 107.884C138.068 117.254 145.664 124.85 155.034 124.85C164.404 124.85 172 117.254 172 107.884Z" fill="#8CADE1"/>
<path fill-rule="evenodd" clip-rule="evenodd" d="M0.52551 16.9661C0.52551 26.3363 8.1215 33.9323 17.4916 33.9323C17.7469 33.9323 18.0009 33.9266 18.2534 33.9155L69.513 85.1751C69.4556 85.7432 69.4261 86.3195 69.4261 86.9028C69.4261 96.2729 77.0221 103.869 86.3923 103.869C95.7624 103.869 103.358 96.2729 103.358 86.9028C103.358 77.5327 95.7624 69.9367 86.3923 69.9367C86.072 69.9367 85.7538 69.9455 85.4379 69.9631L34.3514 18.8766C34.4217 18.2494 34.4578 17.612 34.4578 16.9661C34.4578 7.596 26.8618 0 17.4916 0C8.1215 0 0.52551 7.596 0.52551 16.9661Z" fill="#D62430"/>
<path d="M217 119.801V102.797H227.262V104.624H219.059V110.369H226.731V112.196H219.059V117.974H227.395V119.801H217Z" fill="#999999"/>
<path d="M241.136 107.048L236.42 119.801H234.427L229.711 107.048H231.837L235.357 117.21H235.49L239.01 107.048H241.136Z" fill="#999999"/>
<path d="M248.612 120.067C247.383 120.067 246.324 119.795 245.432 119.253C244.547 118.705 243.863 117.941 243.382 116.961C242.906 115.976 242.668 114.83 242.668 113.524C242.668 112.218 242.906 111.066 243.382 110.07C243.863 109.068 244.533 108.288 245.391 107.729C246.254 107.164 247.262 106.882 248.413 106.882C249.077 106.882 249.733 106.993 250.381 107.214C251.028 107.435 251.618 107.795 252.149 108.293C252.681 108.786 253.104 109.439 253.42 110.253C253.735 111.066 253.893 112.068 253.893 113.258V114.089H244.062V112.395H251.9C251.9 111.675 251.756 111.033 251.468 110.469C251.186 109.904 250.782 109.459 250.256 109.132C249.736 108.805 249.122 108.642 248.413 108.642C247.633 108.642 246.957 108.836 246.387 109.223C245.823 109.605 245.388 110.103 245.084 110.718C244.779 111.332 244.627 111.991 244.627 112.694V113.823C244.627 114.786 244.793 115.602 245.125 116.272C245.463 116.936 245.931 117.443 246.528 117.792C247.126 118.135 247.821 118.306 248.612 118.306C249.127 118.306 249.592 118.234 250.007 118.091C250.428 117.941 250.79 117.72 251.095 117.426C251.399 117.127 251.634 116.757 251.8 116.314L253.694 116.845C253.494 117.487 253.159 118.052 252.689 118.539C252.218 119.02 251.637 119.397 250.945 119.668C250.253 119.934 249.476 120.067 248.612 120.067Z" fill="#999999"/>
<path d="M258.833 112.129V119.801H256.873V107.048H258.766V109.041H258.932C259.231 108.393 259.685 107.873 260.294 107.48C260.903 107.081 261.689 106.882 262.652 106.882C263.516 106.882 264.271 107.059 264.919 107.413C265.566 107.762 266.07 108.293 266.43 109.007C266.79 109.716 266.969 110.613 266.969 111.697V119.801H265.01V111.83C265.01 110.828 264.75 110.048 264.23 109.489C263.709 108.924 262.995 108.642 262.087 108.642C261.462 108.642 260.903 108.778 260.41 109.049C259.923 109.32 259.539 109.716 259.256 110.236C258.974 110.757 258.833 111.388 258.833 112.129Z" fill="#999999"/>
<path d="M276.096 107.048V108.709H269.487V107.048H276.096ZM271.413 103.993H273.373V116.148C273.373 116.701 273.453 117.116 273.614 117.393C273.78 117.664 273.99 117.847 274.245 117.941C274.505 118.03 274.779 118.074 275.067 118.074C275.282 118.074 275.46 118.063 275.598 118.041C275.736 118.013 275.847 117.991 275.93 117.974L276.329 119.734C276.196 119.784 276.01 119.834 275.772 119.884C275.534 119.939 275.233 119.967 274.867 119.967C274.314 119.967 273.771 119.848 273.24 119.61C272.714 119.372 272.277 119.009 271.928 118.522C271.585 118.035 271.413 117.421 271.413 116.679V103.993Z" fill="#999999"/>
<path d="M294.652 109.904L292.892 110.402C292.782 110.109 292.618 109.824 292.402 109.547C292.192 109.265 291.904 109.032 291.539 108.85C291.174 108.667 290.706 108.576 290.136 108.576C289.355 108.576 288.705 108.756 288.185 109.115C287.67 109.47 287.413 109.921 287.413 110.469C287.413 110.956 287.59 111.34 287.944 111.623C288.298 111.905 288.852 112.14 289.604 112.328L291.497 112.793C292.638 113.07 293.487 113.494 294.046 114.064C294.605 114.628 294.885 115.356 294.885 116.247C294.885 116.978 294.675 117.631 294.254 118.207C293.839 118.782 293.258 119.236 292.51 119.568C291.763 119.9 290.894 120.067 289.903 120.067C288.603 120.067 287.526 119.784 286.674 119.22C285.821 118.655 285.282 117.83 285.055 116.745L286.914 116.281C287.092 116.967 287.426 117.482 287.919 117.825C288.417 118.168 289.068 118.34 289.87 118.34C290.783 118.34 291.509 118.146 292.045 117.758C292.588 117.365 292.859 116.895 292.859 116.347C292.859 115.904 292.704 115.533 292.394 115.234C292.084 114.93 291.608 114.703 290.966 114.554L288.841 114.055C287.673 113.779 286.815 113.35 286.267 112.769C285.724 112.182 285.453 111.448 285.453 110.568C285.453 109.849 285.655 109.212 286.059 108.659C286.469 108.105 287.025 107.671 287.728 107.355C288.437 107.04 289.239 106.882 290.136 106.882C291.398 106.882 292.389 107.159 293.108 107.712C293.833 108.266 294.348 108.996 294.652 109.904Z" fill="#999999"/>
<path d="M303.015 120.067C301.864 120.067 300.854 119.793 299.985 119.245C299.121 118.697 298.446 117.93 297.959 116.945C297.477 115.959 297.237 114.808 297.237 113.491C297.237 112.162 297.477 111.003 297.959 110.012C298.446 109.021 299.121 108.252 299.985 107.704C300.854 107.156 301.864 106.882 303.015 106.882C304.167 106.882 305.174 107.156 306.037 107.704C306.906 108.252 307.582 109.021 308.063 110.012C308.55 111.003 308.794 112.162 308.794 113.491C308.794 114.808 308.55 115.959 308.063 116.945C307.582 117.93 306.906 118.697 306.037 119.245C305.174 119.793 304.167 120.067 303.015 120.067ZM303.015 118.306C303.89 118.306 304.609 118.082 305.174 117.634C305.739 117.186 306.156 116.596 306.428 115.865C306.699 115.135 306.835 114.343 306.835 113.491C306.835 112.638 306.699 111.844 306.428 111.108C306.156 110.372 305.739 109.777 305.174 109.323C304.609 108.869 303.89 108.642 303.015 108.642C302.141 108.642 301.421 108.869 300.857 109.323C300.292 109.777 299.874 110.372 299.603 111.108C299.332 111.844 299.196 112.638 299.196 113.491C299.196 114.343 299.332 115.135 299.603 115.865C299.874 116.596 300.292 117.186 300.857 117.634C301.421 118.082 302.141 118.306 303.015 118.306Z" fill="#999999"/>
<path d="M319.822 114.587V107.048H321.781V119.801H319.822V117.642H319.689C319.39 118.29 318.925 118.841 318.294 119.294C317.663 119.743 316.866 119.967 315.903 119.967C315.106 119.967 314.398 119.793 313.778 119.444C313.158 119.09 312.671 118.558 312.316 117.85C311.962 117.136 311.785 116.236 311.785 115.151V107.048H313.744V115.019C313.744 115.948 314.005 116.69 314.525 117.244C315.051 117.797 315.72 118.074 316.534 118.074C317.021 118.074 317.517 117.949 318.02 117.7C318.529 117.451 318.956 117.069 319.299 116.555C319.648 116.04 319.822 115.384 319.822 114.587Z" fill="#999999"/>
<path d="M325.37 119.801V107.048H327.263V108.974H327.396C327.628 108.343 328.049 107.831 328.658 107.438C329.267 107.045 329.953 106.849 330.717 106.849C330.861 106.849 331.041 106.852 331.257 106.857C331.473 106.863 331.636 106.871 331.747 106.882V108.875C331.68 108.858 331.528 108.833 331.29 108.8C331.057 108.761 330.811 108.742 330.551 108.742C329.931 108.742 329.378 108.872 328.89 109.132C328.409 109.387 328.027 109.741 327.745 110.195C327.468 110.643 327.33 111.155 327.33 111.731V119.801H325.37Z" fill="#999999"/>
<path d="M338.862 120.067C337.666 120.067 336.637 119.784 335.773 119.22C334.91 118.655 334.246 117.877 333.781 116.887C333.316 115.896 333.083 114.764 333.083 113.491C333.083 112.196 333.321 111.053 333.797 110.062C334.279 109.066 334.949 108.288 335.807 107.729C336.67 107.164 337.677 106.882 338.829 106.882C339.725 106.882 340.534 107.048 341.253 107.38C341.973 107.712 342.562 108.177 343.022 108.775C343.481 109.373 343.766 110.07 343.877 110.867H341.917C341.768 110.286 341.436 109.771 340.921 109.323C340.412 108.869 339.725 108.642 338.862 108.642C338.098 108.642 337.428 108.841 336.853 109.24C336.283 109.633 335.837 110.189 335.516 110.909C335.2 111.623 335.043 112.461 335.043 113.424C335.043 114.41 335.198 115.268 335.508 115.998C335.823 116.729 336.266 117.296 336.836 117.7C337.412 118.104 338.087 118.306 338.862 118.306C339.371 118.306 339.833 118.218 340.248 118.041C340.664 117.864 341.015 117.609 341.303 117.277C341.591 116.945 341.796 116.546 341.917 116.081H343.877C343.766 116.834 343.492 117.512 343.055 118.115C342.623 118.713 342.05 119.189 341.336 119.543C340.628 119.892 339.803 120.067 338.862 120.067Z" fill="#999999"/>
<path d="M346.741 119.801V107.048H348.701V119.801H346.741ZM347.737 104.923C347.356 104.923 347.026 104.792 346.749 104.532C346.478 104.272 346.343 103.959 346.343 103.594C346.343 103.229 346.478 102.916 346.749 102.656C347.026 102.396 347.356 102.266 347.737 102.266C348.119 102.266 348.446 102.396 348.717 102.656C348.994 102.916 349.132 103.229 349.132 103.594C349.132 103.959 348.994 104.272 348.717 104.532C348.446 104.792 348.119 104.923 347.737 104.923Z" fill="#999999"/>
<path d="M354.249 112.129V119.801H352.289V107.048H354.182V109.041H354.348C354.647 108.393 355.101 107.873 355.71 107.48C356.319 107.081 357.105 106.882 358.068 106.882C358.931 106.882 359.687 107.059 360.335 107.413C360.982 107.762 361.486 108.293 361.846 109.007C362.205 109.716 362.385 110.613 362.385 111.697V119.801H360.426V111.83C360.426 110.828 360.166 110.048 359.646 109.489C359.125 108.924 358.411 108.642 357.503 108.642C356.878 108.642 356.319 108.778 355.826 109.049C355.339 109.32 354.955 109.716 354.672 110.236C354.39 110.757 354.249 111.388 354.249 112.129Z" fill="#999999"/>
<path d="M371.114 124.849C370.167 124.849 369.353 124.727 368.673 124.484C367.992 124.246 367.424 123.93 366.971 123.537C366.522 123.15 366.165 122.734 365.899 122.292L367.46 121.196C367.637 121.428 367.862 121.694 368.133 121.993C368.404 122.297 368.775 122.56 369.245 122.781C369.721 123.008 370.344 123.122 371.114 123.122C372.143 123.122 372.993 122.873 373.662 122.375C374.332 121.877 374.667 121.096 374.667 120.033V117.443H374.501C374.357 117.675 374.152 117.963 373.887 118.306C373.626 118.644 373.25 118.946 372.757 119.211C372.27 119.472 371.612 119.602 370.781 119.602C369.752 119.602 368.828 119.358 368.008 118.871C367.195 118.384 366.55 117.675 366.074 116.745C365.603 115.816 365.368 114.686 365.368 113.358C365.368 112.052 365.598 110.914 366.057 109.946C366.517 108.971 367.156 108.219 367.975 107.687C368.794 107.15 369.741 106.882 370.815 106.882C371.645 106.882 372.304 107.02 372.791 107.297C373.283 107.568 373.66 107.878 373.92 108.227C374.186 108.57 374.39 108.852 374.534 109.074H374.733V107.048H376.626V120.166C376.626 121.262 376.377 122.153 375.879 122.84C375.387 123.532 374.722 124.038 373.887 124.359C373.056 124.686 372.132 124.849 371.114 124.849ZM371.047 117.841C371.833 117.841 372.497 117.662 373.04 117.302C373.582 116.942 373.995 116.424 374.277 115.749C374.559 115.074 374.7 114.266 374.7 113.325C374.7 112.406 374.562 111.595 374.285 110.892C374.008 110.189 373.599 109.638 373.056 109.24C372.514 108.841 371.844 108.642 371.047 108.642C370.217 108.642 369.525 108.852 368.971 109.273C368.423 109.694 368.011 110.258 367.734 110.967C367.463 111.675 367.328 112.461 367.328 113.325C367.328 114.21 367.466 114.994 367.743 115.674C368.025 116.35 368.44 116.881 368.988 117.269C369.542 117.65 370.228 117.841 371.047 117.841Z" fill="#999999"/>
<path d="M386.789 119.801V107.048H388.682V108.974H388.815C389.047 108.343 389.468 107.831 390.077 107.438C390.686 107.045 391.372 106.849 392.136 106.849C392.28 106.849 392.46 106.852 392.675 106.857C392.891 106.863 393.055 106.871 393.165 106.882V108.875C393.099 108.858 392.947 108.833 392.709 108.8C392.476 108.761 392.23 108.742 391.97 108.742C391.35 108.742 390.796 108.872 390.309 109.132C389.828 109.387 389.446 109.741 389.163 110.195C388.887 110.643 388.748 111.155 388.748 111.731V119.801H386.789Z" fill="#999999"/>
<path d="M403.525 114.587V107.048H405.484V119.801H403.525V117.642H403.392C403.093 118.29 402.628 118.841 401.997 119.294C401.366 119.743 400.569 119.967 399.606 119.967C398.809 119.967 398.101 119.793 397.481 119.444C396.861 119.09 396.374 118.558 396.019 117.85C395.665 117.136 395.488 116.236 395.488 115.151V107.048H397.447V115.019C397.447 115.948 397.708 116.69 398.228 117.244C398.754 117.797 399.423 118.074 400.237 118.074C400.724 118.074 401.22 117.949 401.723 117.7C402.233 117.451 402.659 117.069 403.002 116.555C403.351 116.04 403.525 115.384 403.525 114.587Z" fill="#999999"/>
<path d="M411.033 112.129V119.801H409.073V107.048H410.966V109.041H411.132C411.431 108.393 411.885 107.873 412.494 107.48C413.103 107.081 413.889 106.882 414.852 106.882C415.715 106.882 416.471 107.059 417.118 107.413C417.766 107.762 418.27 108.293 418.63 109.007C418.989 109.716 419.169 110.613 419.169 111.697V119.801H417.21V111.83C417.21 110.828 416.95 110.048 416.429 109.489C415.909 108.924 415.195 108.642 414.287 108.642C413.662 108.642 413.103 108.778 412.61 109.049C412.123 109.32 411.738 109.716 411.456 110.236C411.174 110.757 411.033 111.388 411.033 112.129Z" fill="#999999"/>
<path d="M428.296 107.048V108.709H421.687V107.048H428.296ZM423.613 103.993H425.573V116.148C425.573 116.701 425.653 117.116 425.813 117.393C425.979 117.664 426.19 117.847 426.444 117.941C426.705 118.03 426.979 118.074 427.266 118.074C427.482 118.074 427.659 118.063 427.798 118.041C427.936 118.013 428.047 117.991 428.13 117.974L428.528 119.734C428.395 119.784 428.21 119.834 427.972 119.884C427.734 119.939 427.432 119.967 427.067 119.967C426.514 119.967 425.971 119.848 425.44 119.61C424.914 119.372 424.477 119.009 424.128 118.522C423.785 118.035 423.613 117.421 423.613 116.679V103.993Z" fill="#999999"/>
<path d="M431.243 119.801V107.048H433.203V119.801H431.243ZM432.24 104.923C431.858 104.923 431.528 104.792 431.252 104.532C430.98 104.272 430.845 103.959 430.845 103.594C430.845 103.229 430.98 102.916 431.252 102.656C431.528 102.396 431.858 102.266 432.24 102.266C432.622 102.266 432.948 102.396 433.219 102.656C433.496 102.916 433.634 103.229 433.634 103.594C433.634 103.959 433.496 104.272 433.219 104.532C432.948 104.792 432.622 104.923 432.24 104.923Z" fill="#999999"/>
<path d="M436.792 119.801V107.048H438.685V109.041H438.851C439.116 108.36 439.545 107.831 440.137 107.455C440.73 107.073 441.441 106.882 442.271 106.882C443.113 106.882 443.813 107.073 444.372 107.455C444.936 107.831 445.376 108.36 445.692 109.041H445.825C446.151 108.382 446.641 107.859 447.294 107.471C447.948 107.078 448.731 106.882 449.644 106.882C450.784 106.882 451.717 107.239 452.442 107.953C453.167 108.661 453.53 109.766 453.53 111.266V119.801H451.57V111.266C451.57 110.325 451.313 109.652 450.798 109.248C450.283 108.844 449.677 108.642 448.98 108.642C448.083 108.642 447.388 108.913 446.896 109.456C446.403 109.993 446.157 110.673 446.157 111.498V119.801H444.164V111.066C444.164 110.341 443.929 109.757 443.459 109.315C442.988 108.866 442.382 108.642 441.64 108.642C441.131 108.642 440.655 108.778 440.212 109.049C439.775 109.32 439.421 109.697 439.149 110.178C438.884 110.654 438.751 111.205 438.751 111.83V119.801H436.792Z" fill="#999999"/>
<path d="M462.459 120.067C461.23 120.067 460.17 119.795 459.279 119.253C458.394 118.705 457.71 117.941 457.228 116.961C456.752 115.976 456.514 114.83 456.514 113.524C456.514 112.218 456.752 111.066 457.228 110.07C457.71 109.068 458.38 108.288 459.238 107.729C460.101 107.164 461.109 106.882 462.26 106.882C462.924 106.882 463.58 106.993 464.228 107.214C464.875 107.435 465.465 107.795 465.996 108.293C466.527 108.786 466.951 109.439 467.266 110.253C467.582 111.066 467.74 112.068 467.74 113.258V114.089H457.909V112.395H465.747C465.747 111.675 465.603 111.033 465.315 110.469C465.033 109.904 464.629 109.459 464.103 109.132C463.583 108.805 462.968 108.642 462.26 108.642C461.479 108.642 460.804 108.836 460.234 109.223C459.669 109.605 459.235 110.103 458.931 110.718C458.626 111.332 458.474 111.991 458.474 112.694V113.823C458.474 114.786 458.64 115.602 458.972 116.272C459.31 116.936 459.777 117.443 460.375 117.792C460.973 118.135 461.668 118.306 462.459 118.306C462.974 118.306 463.439 118.234 463.854 118.091C464.275 117.941 464.637 117.72 464.942 117.426C465.246 117.127 465.481 116.757 465.647 116.314L467.54 116.845C467.341 117.487 467.006 118.052 466.536 118.539C466.065 119.02 465.484 119.397 464.792 119.668C464.1 119.934 463.323 120.067 462.459 120.067Z" fill="#999999"/>
<path d="M482.975 107.048V108.709H476.1V107.048H482.975ZM478.159 119.801V105.288C478.159 104.557 478.331 103.948 478.674 103.461C479.017 102.974 479.463 102.609 480.011 102.365C480.559 102.122 481.137 102 481.746 102C482.228 102 482.621 102.039 482.925 102.116C483.23 102.194 483.456 102.266 483.606 102.332L483.041 104.026C482.942 103.993 482.803 103.951 482.626 103.901C482.455 103.851 482.228 103.827 481.945 103.827C481.298 103.827 480.83 103.99 480.542 104.316C480.26 104.643 480.119 105.122 480.119 105.753V119.801H478.159Z" fill="#999999"/>
<path d="M490.377 120.067C489.225 120.067 488.215 119.793 487.346 119.245C486.483 118.697 485.808 117.93 485.32 116.945C484.839 115.959 484.598 114.808 484.598 113.491C484.598 112.162 484.839 111.003 485.32 110.012C485.808 109.021 486.483 108.252 487.346 107.704C488.215 107.156 489.225 106.882 490.377 106.882C491.528 106.882 492.535 107.156 493.399 107.704C494.268 108.252 494.943 109.021 495.425 110.012C495.912 111.003 496.155 112.162 496.155 113.491C496.155 114.808 495.912 115.959 495.425 116.945C494.943 117.93 494.268 118.697 493.399 119.245C492.535 119.793 491.528 120.067 490.377 120.067ZM490.377 118.306C491.251 118.306 491.971 118.082 492.535 117.634C493.1 117.186 493.518 116.596 493.789 115.865C494.06 115.135 494.196 114.343 494.196 113.491C494.196 112.638 494.06 111.844 493.789 111.108C493.518 110.372 493.1 109.777 492.535 109.323C491.971 108.869 491.251 108.642 490.377 108.642C489.502 108.642 488.783 108.869 488.218 109.323C487.653 109.777 487.236 110.372 486.964 111.108C486.693 111.844 486.558 112.638 486.558 113.491C486.558 114.343 486.693 115.135 486.964 115.865C487.236 116.596 487.653 117.186 488.218 117.634C488.783 118.082 489.502 118.306 490.377 118.306Z" fill="#999999"/>
<path d="M499.146 119.801V107.048H501.039V108.974H501.172C501.405 108.343 501.825 107.831 502.434 107.438C503.043 107.045 503.729 106.849 504.493 106.849C504.637 106.849 504.817 106.852 505.033 106.857C505.249 106.863 505.412 106.871 505.523 106.882V108.875C505.456 108.858 505.304 108.833 505.066 108.8C504.834 108.761 504.587 108.742 504.327 108.742C503.707 108.742 503.154 108.872 502.667 109.132C502.185 109.387 501.803 109.741 501.521 110.195C501.244 110.643 501.106 111.155 501.106 111.731V119.801H499.146Z" fill="#999999"/>
<path d="M517.31 119.801L513.425 107.048H515.484L518.24 116.812H518.373L521.096 107.048H523.189L525.879 116.779H526.012L528.768 107.048H530.827L526.942 119.801H525.015L522.226 110.004H522.026L519.237 119.801H517.31Z" fill="#999999"/>
<path d="M537.17 120.1C536.362 120.1 535.629 119.948 534.97 119.643C534.312 119.333 533.788 118.888 533.401 118.306C533.014 117.72 532.82 117.011 532.82 116.181C532.82 115.45 532.964 114.858 533.252 114.404C533.539 113.945 533.924 113.585 534.406 113.325C534.887 113.065 535.419 112.871 536 112.744C536.586 112.611 537.176 112.506 537.768 112.428C538.543 112.328 539.171 112.254 539.653 112.204C540.14 112.149 540.494 112.057 540.716 111.93C540.943 111.803 541.056 111.581 541.056 111.266V111.199C541.056 110.38 540.832 109.744 540.384 109.29C539.941 108.836 539.268 108.609 538.366 108.609C537.431 108.609 536.697 108.814 536.166 109.223C535.634 109.633 535.261 110.07 535.045 110.535L533.185 109.871C533.517 109.096 533.96 108.493 534.514 108.061C535.073 107.624 535.681 107.319 536.34 107.148C537.004 106.971 537.657 106.882 538.3 106.882C538.709 106.882 539.18 106.932 539.711 107.031C540.248 107.125 540.765 107.322 541.264 107.621C541.767 107.92 542.185 108.371 542.517 108.974C542.849 109.578 543.015 110.386 543.015 111.399V119.801H541.056V118.074H540.956C540.824 118.351 540.602 118.647 540.292 118.962C539.982 119.278 539.57 119.546 539.055 119.768C538.54 119.989 537.912 120.1 537.17 120.1ZM537.469 118.34C538.244 118.34 538.897 118.187 539.429 117.883C539.966 117.579 540.37 117.186 540.641 116.704C540.918 116.222 541.056 115.716 541.056 115.185V113.391C540.973 113.491 540.79 113.582 540.508 113.665C540.231 113.743 539.91 113.812 539.545 113.873C539.185 113.928 538.834 113.978 538.491 114.022C538.153 114.061 537.879 114.094 537.669 114.122C537.159 114.188 536.683 114.296 536.24 114.446C535.803 114.59 535.449 114.808 535.178 115.102C534.912 115.389 534.779 115.782 534.779 116.281C534.779 116.961 535.031 117.476 535.535 117.825C536.044 118.168 536.689 118.34 537.469 118.34Z" fill="#999999"/>
<path d="M555.625 109.904L553.865 110.402C553.754 110.109 553.591 109.824 553.375 109.547C553.165 109.265 552.877 109.032 552.512 108.85C552.146 108.667 551.679 108.576 551.108 108.576C550.328 108.576 549.678 108.756 549.157 109.115C548.643 109.47 548.385 109.921 548.385 110.469C548.385 110.956 548.562 111.34 548.917 111.623C549.271 111.905 549.824 112.14 550.577 112.328L552.47 112.793C553.61 113.07 554.46 113.494 555.019 114.064C555.578 114.628 555.858 115.356 555.858 116.247C555.858 116.978 555.647 117.631 555.227 118.207C554.811 118.782 554.23 119.236 553.483 119.568C552.736 119.9 551.867 120.067 550.876 120.067C549.575 120.067 548.499 119.784 547.646 119.22C546.794 118.655 546.254 117.83 546.027 116.745L547.887 116.281C548.064 116.967 548.399 117.482 548.892 117.825C549.39 118.168 550.04 118.34 550.843 118.34C551.756 118.34 552.481 118.146 553.018 117.758C553.56 117.365 553.832 116.895 553.832 116.347C553.832 115.904 553.677 115.533 553.367 115.234C553.057 114.93 552.581 114.703 551.939 114.554L549.813 114.055C548.645 113.779 547.787 113.35 547.239 112.769C546.697 112.182 546.426 111.448 546.426 110.568C546.426 109.849 546.628 109.212 547.032 108.659C547.441 108.105 547.998 107.671 548.701 107.355C549.409 107.04 550.212 106.882 551.108 106.882C552.37 106.882 553.361 107.159 554.081 107.712C554.806 108.266 555.321 108.996 555.625 109.904Z" fill="#999999"/>
<path d="M558.807 119.801V107.048H560.7V109.041H560.866C561.132 108.36 561.561 107.831 562.153 107.455C562.745 107.073 563.457 106.882 564.287 106.882C565.128 106.882 565.828 107.073 566.387 107.455C566.952 107.831 567.392 108.36 567.707 109.041H567.84C568.167 108.382 568.657 107.859 569.31 107.471C569.963 107.078 570.746 106.882 571.66 106.882C572.8 106.882 573.732 107.239 574.458 107.953C575.183 108.661 575.545 109.766 575.545 111.266V119.801H573.586V111.266C573.586 110.325 573.328 109.652 572.814 109.248C572.299 108.844 571.693 108.642 570.995 108.642C570.099 108.642 569.404 108.913 568.911 109.456C568.419 109.993 568.172 110.673 568.172 111.498V119.801H566.18V111.066C566.18 110.341 565.945 109.757 565.474 109.315C565.004 108.866 564.397 108.642 563.656 108.642C563.147 108.642 562.671 108.778 562.228 109.049C561.79 109.32 561.436 109.697 561.165 110.178C560.899 110.654 560.766 111.205 560.766 111.83V119.801H558.807Z" fill="#999999"/>
</svg>
