<svg width="500" height="500" viewBox="0 0 500 500" fill="none" xmlns="http://www.w3.org/2000/svg">
<path d="M288.431 82C288.431 82.5929 288.431 83.1859 288.431 83.8118C288.431 105.092 271.181 122.336 249.907 122.336C228.627 122.336 211.382 105.086 211.382 83.8118C211.382 83.1859 211.382 82.5929 211.382 82H82V418H418V82H288.431Z" fill="#654FF0"/>
<path d="M160.049 263.072H182.317L197.519 344.036H197.794L216.065 263.072H236.895L253.398 345.03H253.722L271.049 263.072H292.889L264.511 382.039H242.412L226.046 301.075H225.618L208.099 382.039H185.589L160.049 263.072ZM317.996 263.072H353.1L387.963 382.039H364.992L357.41 355.565H317.42L311.567 382.039H289.194L317.996 263.072ZM331.359 292.395L321.647 336.042H351.876L340.725 292.395H331.359Z" fill="white"/>
</svg>
